%TF.GenerationSoftware,KiCad,Pcbnew,(6.0.1)*%
%TF.CreationDate,2022-09-11T09:04:56+02:00*%
%TF.ProjectId,vca,7663612e-6b69-4636-9164-5f7063625858,rev?*%
%TF.SameCoordinates,Original*%
%TF.FileFunction,Copper,L1,Top*%
%TF.FilePolarity,Positive*%
%FSLAX46Y46*%
G04 Gerber Fmt 4.6, Leading zero omitted, Abs format (unit mm)*
G04 Created by KiCad (PCBNEW (6.0.1)) date 2022-09-11 09:04:56*
%MOMM*%
%LPD*%
G01*
G04 APERTURE LIST*
G04 Aperture macros list*
%AMRoundRect*
0 Rectangle with rounded corners*
0 $1 Rounding radius*
0 $2 $3 $4 $5 $6 $7 $8 $9 X,Y pos of 4 corners*
0 Add a 4 corners polygon primitive as box body*
4,1,4,$2,$3,$4,$5,$6,$7,$8,$9,$2,$3,0*
0 Add four circle primitives for the rounded corners*
1,1,$1+$1,$2,$3*
1,1,$1+$1,$4,$5*
1,1,$1+$1,$6,$7*
1,1,$1+$1,$8,$9*
0 Add four rect primitives between the rounded corners*
20,1,$1+$1,$2,$3,$4,$5,0*
20,1,$1+$1,$4,$5,$6,$7,0*
20,1,$1+$1,$6,$7,$8,$9,0*
20,1,$1+$1,$8,$9,$2,$3,0*%
G04 Aperture macros list end*
%TA.AperFunction,ComponentPad*%
%ADD10C,1.500000*%
%TD*%
%TA.AperFunction,ComponentPad*%
%ADD11O,2.720000X3.240000*%
%TD*%
%TA.AperFunction,ComponentPad*%
%ADD12R,1.800000X1.800000*%
%TD*%
%TA.AperFunction,ComponentPad*%
%ADD13C,1.800000*%
%TD*%
%TA.AperFunction,ComponentPad*%
%ADD14O,3.100000X2.100000*%
%TD*%
%TA.AperFunction,ComponentPad*%
%ADD15RoundRect,0.650000X-0.650000X-0.650000X0.650000X-0.650000X0.650000X0.650000X-0.650000X0.650000X0*%
%TD*%
%TA.AperFunction,ComponentPad*%
%ADD16C,1.400000*%
%TD*%
%TA.AperFunction,ComponentPad*%
%ADD17O,1.400000X1.400000*%
%TD*%
%TA.AperFunction,ComponentPad*%
%ADD18R,1.200000X1.200000*%
%TD*%
%TA.AperFunction,ComponentPad*%
%ADD19C,1.200000*%
%TD*%
%TA.AperFunction,ComponentPad*%
%ADD20R,1.600000X1.600000*%
%TD*%
%TA.AperFunction,ComponentPad*%
%ADD21O,1.600000X1.600000*%
%TD*%
%TA.AperFunction,ComponentPad*%
%ADD22RoundRect,0.250000X0.600000X-0.600000X0.600000X0.600000X-0.600000X0.600000X-0.600000X-0.600000X0*%
%TD*%
%TA.AperFunction,ComponentPad*%
%ADD23C,1.700000*%
%TD*%
%TA.AperFunction,ComponentPad*%
%ADD24C,1.600000*%
%TD*%
%TA.AperFunction,ComponentPad*%
%ADD25R,2.200000X2.200000*%
%TD*%
%TA.AperFunction,ComponentPad*%
%ADD26O,2.200000X2.200000*%
%TD*%
%TA.AperFunction,ComponentPad*%
%ADD27R,1.500000X1.050000*%
%TD*%
%TA.AperFunction,ComponentPad*%
%ADD28O,1.500000X1.050000*%
%TD*%
%TA.AperFunction,ComponentPad*%
%ADD29C,1.440000*%
%TD*%
%TA.AperFunction,ViaPad*%
%ADD30C,0.800000*%
%TD*%
%TA.AperFunction,Conductor*%
%ADD31C,0.350000*%
%TD*%
%TA.AperFunction,Conductor*%
%ADD32C,0.700000*%
%TD*%
G04 APERTURE END LIST*
D10*
%TO.P,TP3,1,1*%
%TO.N,Net-(R33-Pad1)*%
X59200000Y-39200000D03*
%TD*%
%TO.P,TP4,1,1*%
%TO.N,Net-(R34-Pad1)*%
X57000000Y-99675000D03*
%TD*%
D11*
%TO.P,RV1,*%
%TO.N,*%
X48200000Y-47600000D03*
X38600000Y-47600000D03*
D12*
%TO.P,RV1,1,1*%
%TO.N,GND*%
X40900000Y-55100000D03*
D13*
%TO.P,RV1,2,2*%
%TO.N,Net-(R9-Pad2)*%
X43400000Y-55100000D03*
%TO.P,RV1,3,3*%
%TO.N,Net-(R1-Pad2)*%
X45900000Y-55100000D03*
%TD*%
D10*
%TO.P,TP2,1,1*%
%TO.N,Net-(R16-Pad1)*%
X47375000Y-38800000D03*
%TD*%
D14*
%TO.P,J5,S*%
%TO.N,GND*%
X71200000Y-124080000D03*
D15*
%TO.P,J5,T*%
%TO.N,OUT2*%
X71200000Y-112680000D03*
%TO.P,J5,TN*%
%TO.N,unconnected-(J5-PadTN)*%
X71200000Y-120980000D03*
%TD*%
D14*
%TO.P,J4,S*%
%TO.N,GND*%
X71200000Y-88080000D03*
D15*
%TO.P,J4,T*%
%TO.N,CV2*%
X71200000Y-76680000D03*
%TO.P,J4,TN*%
%TO.N,unconnected-(J4-PadTN)*%
X71200000Y-84980000D03*
%TD*%
D14*
%TO.P,J1,S*%
%TO.N,GND*%
X43400000Y-106080000D03*
D15*
%TO.P,J1,T*%
%TO.N,IN1*%
X43400000Y-94680000D03*
%TO.P,J1,TN*%
%TO.N,unconnected-(J1-PadTN)*%
X43400000Y-102980000D03*
%TD*%
D14*
%TO.P,J6,S*%
%TO.N,GND*%
X43400000Y-123915000D03*
D15*
%TO.P,J6,T*%
%TO.N,OUT1*%
X43400000Y-112515000D03*
%TO.P,J6,TN*%
%TO.N,unconnected-(J6-PadTN)*%
X43400000Y-120815000D03*
%TD*%
D14*
%TO.P,J2,S*%
%TO.N,GND*%
X71200000Y-106080000D03*
D15*
%TO.P,J2,T*%
%TO.N,IN2*%
X71200000Y-94680000D03*
%TO.P,J2,TN*%
%TO.N,unconnected-(J2-PadTN)*%
X71200000Y-102980000D03*
%TD*%
D14*
%TO.P,J3,S*%
%TO.N,GND*%
X43400000Y-88080000D03*
D15*
%TO.P,J3,T*%
%TO.N,CV1*%
X43400000Y-76680000D03*
%TO.P,J3,TN*%
%TO.N,unconnected-(J3-PadTN)*%
X43400000Y-84980000D03*
%TD*%
D10*
%TO.P,TP1,1,1*%
%TO.N,Net-(R15-Pad1)*%
X73300000Y-72050000D03*
%TD*%
D11*
%TO.P,RV2,*%
%TO.N,*%
X66400000Y-47600000D03*
X76000000Y-47600000D03*
D12*
%TO.P,RV2,1,1*%
%TO.N,Net-(R11-Pad1)*%
X68700000Y-55100000D03*
D13*
%TO.P,RV2,2,2*%
%TO.N,Net-(R16-Pad2)*%
X71200000Y-55100000D03*
%TO.P,RV2,3,3*%
X73700000Y-55100000D03*
%TD*%
D16*
%TO.P,R31,1*%
%TO.N,Net-(R26-Pad1)*%
X67540000Y-66225000D03*
D17*
%TO.P,R31,2*%
%TO.N,GND*%
X75160000Y-66225000D03*
%TD*%
D16*
%TO.P,R34,1*%
%TO.N,Net-(R34-Pad1)*%
X63575000Y-104210000D03*
D17*
%TO.P,R34,2*%
%TO.N,Net-(R28-Pad1)*%
X63575000Y-96590000D03*
%TD*%
D16*
%TO.P,R30,1*%
%TO.N,Net-(Q4-Pad2)*%
X84400000Y-51160000D03*
D17*
%TO.P,R30,2*%
%TO.N,Net-(R30-Pad2)*%
X84400000Y-43540000D03*
%TD*%
D18*
%TO.P,C6,1*%
%TO.N,+12V*%
X47550000Y-20800000D03*
D19*
%TO.P,C6,2*%
%TO.N,GND*%
X45550000Y-20800000D03*
%TD*%
D16*
%TO.P,R8,1*%
%TO.N,Net-(R15-Pad2)*%
X30350000Y-69890000D03*
D17*
%TO.P,R8,2*%
%TO.N,CV1*%
X30350000Y-77510000D03*
%TD*%
D16*
%TO.P,R19,1*%
%TO.N,Net-(Q1-Pad3)*%
X41990000Y-65950000D03*
D17*
%TO.P,R19,2*%
%TO.N,Net-(R15-Pad1)*%
X49610000Y-65950000D03*
%TD*%
D18*
%TO.P,C7,1*%
%TO.N,GND*%
X45627401Y-26150000D03*
D19*
%TO.P,C7,2*%
%TO.N,-12V*%
X47627401Y-26150000D03*
%TD*%
D16*
%TO.P,R17,1*%
%TO.N,+12V*%
X29700000Y-36690000D03*
D17*
%TO.P,R17,2*%
%TO.N,Net-(Q1-Pad1)*%
X29700000Y-44310000D03*
%TD*%
D20*
%TO.P,U2,1*%
%TO.N,Net-(R33-Pad1)*%
X61850000Y-52325000D03*
D21*
%TO.P,U2,2,-*%
%TO.N,Net-(R25-Pad1)*%
X61850000Y-54865000D03*
%TO.P,U2,3,+*%
%TO.N,Net-(R26-Pad1)*%
X61850000Y-57405000D03*
%TO.P,U2,4,V+*%
%TO.N,+12V*%
X61850000Y-59945000D03*
%TO.P,U2,5,+*%
%TO.N,GND*%
X61850000Y-62485000D03*
%TO.P,U2,6,-*%
%TO.N,Net-(R15-Pad2)*%
X61850000Y-65025000D03*
%TO.P,U2,7*%
%TO.N,Net-(R15-Pad1)*%
X61850000Y-67565000D03*
%TO.P,U2,8*%
%TO.N,Net-(R34-Pad1)*%
X54230000Y-67565000D03*
%TO.P,U2,9,-*%
%TO.N,Net-(R28-Pad1)*%
X54230000Y-65025000D03*
%TO.P,U2,10,+*%
%TO.N,Net-(R29-Pad1)*%
X54230000Y-62485000D03*
%TO.P,U2,11,V-*%
%TO.N,-12V*%
X54230000Y-59945000D03*
%TO.P,U2,12,+*%
%TO.N,GND*%
X54230000Y-57405000D03*
%TO.P,U2,13,-*%
%TO.N,Net-(R11-Pad1)*%
X54230000Y-54865000D03*
%TO.P,U2,14*%
%TO.N,Net-(R16-Pad1)*%
X54230000Y-52325000D03*
%TD*%
D16*
%TO.P,R16,1*%
%TO.N,Net-(R16-Pad1)*%
X52050000Y-41340000D03*
D17*
%TO.P,R16,2*%
%TO.N,Net-(R16-Pad2)*%
X52050000Y-48960000D03*
%TD*%
D16*
%TO.P,R32,1*%
%TO.N,Net-(R29-Pad1)*%
X51250000Y-79440000D03*
D17*
%TO.P,R32,2*%
%TO.N,GND*%
X51250000Y-87060000D03*
%TD*%
D16*
%TO.P,R23,1*%
%TO.N,Net-(Q3-Pad2)*%
X41890000Y-69100000D03*
D17*
%TO.P,R23,2*%
%TO.N,GND*%
X49510000Y-69100000D03*
%TD*%
D22*
%TO.P,J7,1,Pin_1*%
%TO.N,Net-(D2-Pad1)*%
X80400000Y-24900000D03*
D23*
%TO.P,J7,2,Pin_2*%
X80400000Y-22360000D03*
%TO.P,J7,3,Pin_3*%
%TO.N,GND*%
X77860000Y-24900000D03*
%TO.P,J7,4,Pin_4*%
X77860000Y-22360000D03*
%TO.P,J7,5,Pin_5*%
X75320000Y-24900000D03*
%TO.P,J7,6,Pin_6*%
X75320000Y-22360000D03*
%TO.P,J7,7,Pin_7*%
X72780000Y-24900000D03*
%TO.P,J7,8,Pin_8*%
X72780000Y-22360000D03*
%TO.P,J7,9,Pin_9*%
%TO.N,Net-(D1-Pad2)*%
X70240000Y-24900000D03*
%TO.P,J7,10,Pin_10*%
X70240000Y-22360000D03*
%TD*%
D16*
%TO.P,R9,1*%
%TO.N,Net-(R15-Pad2)*%
X34990000Y-59275000D03*
D17*
%TO.P,R9,2*%
%TO.N,Net-(R9-Pad2)*%
X42610000Y-59275000D03*
%TD*%
D16*
%TO.P,R11,1*%
%TO.N,Net-(R11-Pad1)*%
X55190000Y-44700000D03*
D17*
%TO.P,R11,2*%
%TO.N,CV2*%
X62810000Y-44700000D03*
%TD*%
D16*
%TO.P,R20,1*%
%TO.N,Net-(Q2-Pad3)*%
X62935000Y-36225000D03*
D17*
%TO.P,R20,2*%
%TO.N,Net-(R16-Pad1)*%
X55315000Y-36225000D03*
%TD*%
D16*
%TO.P,R26,1*%
%TO.N,Net-(R26-Pad1)*%
X60760000Y-72050000D03*
D17*
%TO.P,R26,2*%
%TO.N,Net-(Q3-Pad1)*%
X53140000Y-72050000D03*
%TD*%
D16*
%TO.P,R25,1*%
%TO.N,Net-(R25-Pad1)*%
X29240000Y-80200000D03*
D17*
%TO.P,R25,2*%
%TO.N,Net-(Q1-Pad1)*%
X36860000Y-80200000D03*
%TD*%
D16*
%TO.P,R29,1*%
%TO.N,Net-(R29-Pad1)*%
X81450000Y-86735000D03*
D17*
%TO.P,R29,2*%
%TO.N,Net-(Q4-Pad1)*%
X81450000Y-79115000D03*
%TD*%
D24*
%TO.P,C1,1*%
%TO.N,IN1*%
X36350000Y-90550000D03*
%TO.P,C1,2*%
%TO.N,Net-(C1-Pad2)*%
X36350000Y-95550000D03*
%TD*%
D16*
%TO.P,R7,1*%
%TO.N,Net-(Q1-Pad2)*%
X32750000Y-95090000D03*
D17*
%TO.P,R7,2*%
%TO.N,Net-(C1-Pad2)*%
X32750000Y-102710000D03*
%TD*%
D16*
%TO.P,R22,1*%
%TO.N,Net-(Q4-Pad1)*%
X81425000Y-75760000D03*
D17*
%TO.P,R22,2*%
%TO.N,+12V*%
X81425000Y-68140000D03*
%TD*%
D25*
%TO.P,D1,1,K*%
%TO.N,+12V*%
X52170000Y-20800000D03*
D26*
%TO.P,D1,2,A*%
%TO.N,Net-(D1-Pad2)*%
X62330000Y-20800000D03*
%TD*%
D16*
%TO.P,R36,1*%
%TO.N,OUT2*%
X77890000Y-112700000D03*
D17*
%TO.P,R36,2*%
%TO.N,Net-(R34-Pad1)*%
X85510000Y-112700000D03*
%TD*%
D27*
%TO.P,Q2,1,C*%
%TO.N,Net-(Q2-Pad1)*%
X75100000Y-38850000D03*
D28*
%TO.P,Q2,2,B*%
%TO.N,Net-(Q2-Pad2)*%
X75100000Y-37580000D03*
%TO.P,Q2,3,E*%
%TO.N,Net-(Q2-Pad3)*%
X75100000Y-36310000D03*
%TD*%
D16*
%TO.P,R24,1*%
%TO.N,Net-(Q4-Pad2)*%
X84400000Y-54040000D03*
D17*
%TO.P,R24,2*%
%TO.N,GND*%
X84400000Y-61660000D03*
%TD*%
D16*
%TO.P,R33,1*%
%TO.N,Net-(R33-Pad1)*%
X29650000Y-108800000D03*
D17*
%TO.P,R33,2*%
%TO.N,Net-(R25-Pad1)*%
X29650000Y-101180000D03*
%TD*%
D16*
%TO.P,R10,1*%
%TO.N,Net-(Q2-Pad2)*%
X83200000Y-98090000D03*
D17*
%TO.P,R10,2*%
%TO.N,Net-(C2-Pad2)*%
X83200000Y-105710000D03*
%TD*%
D16*
%TO.P,R35,1*%
%TO.N,OUT1*%
X34400000Y-116410000D03*
D17*
%TO.P,R35,2*%
%TO.N,Net-(R33-Pad1)*%
X34400000Y-108790000D03*
%TD*%
D16*
%TO.P,R18,1*%
%TO.N,+12V*%
X63550000Y-87510000D03*
D17*
%TO.P,R18,2*%
%TO.N,Net-(Q2-Pad1)*%
X63550000Y-79890000D03*
%TD*%
D24*
%TO.P,C4,1*%
%TO.N,+12V*%
X66100000Y-60700000D03*
%TO.P,C4,2*%
%TO.N,GND*%
X71100000Y-60700000D03*
%TD*%
D29*
%TO.P,RV4,1,1*%
%TO.N,+12V*%
X81650000Y-38000000D03*
%TO.P,RV4,2,2*%
%TO.N,Net-(R30-Pad2)*%
X84190000Y-35460000D03*
%TO.P,RV4,3,3*%
%TO.N,-12V*%
X81650000Y-32920000D03*
%TD*%
D16*
%TO.P,R28,1*%
%TO.N,Net-(R28-Pad1)*%
X60500000Y-85360000D03*
D17*
%TO.P,R28,2*%
%TO.N,Net-(Q2-Pad1)*%
X60500000Y-77740000D03*
%TD*%
D25*
%TO.P,D2,1,K*%
%TO.N,Net-(D2-Pad1)*%
X62380000Y-26150000D03*
D26*
%TO.P,D2,2,A*%
%TO.N,-12V*%
X52220000Y-26150000D03*
%TD*%
D16*
%TO.P,R27,1*%
%TO.N,Net-(Q3-Pad2)*%
X41890000Y-72750000D03*
D17*
%TO.P,R27,2*%
%TO.N,Net-(R27-Pad2)*%
X49510000Y-72750000D03*
%TD*%
D16*
%TO.P,R1,1*%
%TO.N,+12V*%
X33900000Y-47440000D03*
D17*
%TO.P,R1,2*%
%TO.N,Net-(R1-Pad2)*%
X33900000Y-55060000D03*
%TD*%
D16*
%TO.P,R21,1*%
%TO.N,Net-(Q3-Pad1)*%
X29600000Y-55060000D03*
D17*
%TO.P,R21,2*%
%TO.N,+12V*%
X29600000Y-47440000D03*
%TD*%
D27*
%TO.P,Q3,1,C*%
%TO.N,Net-(Q3-Pad1)*%
X32160000Y-63630000D03*
D28*
%TO.P,Q3,2,B*%
%TO.N,Net-(Q3-Pad2)*%
X32160000Y-64900000D03*
%TO.P,Q3,3,E*%
%TO.N,Net-(Q1-Pad3)*%
X32160000Y-66170000D03*
%TD*%
D27*
%TO.P,Q1,1,C*%
%TO.N,Net-(Q1-Pad1)*%
X36390000Y-66170000D03*
D28*
%TO.P,Q1,2,B*%
%TO.N,Net-(Q1-Pad2)*%
X36390000Y-64900000D03*
%TO.P,Q1,3,E*%
%TO.N,Net-(Q1-Pad3)*%
X36390000Y-63630000D03*
%TD*%
D16*
%TO.P,R13,1*%
%TO.N,GND*%
X32750000Y-83840000D03*
D17*
%TO.P,R13,2*%
%TO.N,Net-(Q1-Pad2)*%
X32750000Y-91460000D03*
%TD*%
D16*
%TO.P,R15,1*%
%TO.N,Net-(R15-Pad1)*%
X49560000Y-62950000D03*
D17*
%TO.P,R15,2*%
%TO.N,Net-(R15-Pad2)*%
X41940000Y-62950000D03*
%TD*%
D27*
%TO.P,Q4,1,C*%
%TO.N,Net-(Q4-Pad1)*%
X70210000Y-36380000D03*
D28*
%TO.P,Q4,2,B*%
%TO.N,Net-(Q4-Pad2)*%
X70210000Y-37650000D03*
%TO.P,Q4,3,E*%
%TO.N,Net-(Q2-Pad3)*%
X70210000Y-38920000D03*
%TD*%
D24*
%TO.P,C2,1*%
%TO.N,IN2*%
X79050000Y-95150000D03*
%TO.P,C2,2*%
%TO.N,Net-(C2-Pad2)*%
X79050000Y-100150000D03*
%TD*%
%TO.P,C8,1*%
%TO.N,-12V*%
X50900000Y-58300000D03*
%TO.P,C8,2*%
%TO.N,GND*%
X45900000Y-58300000D03*
%TD*%
D16*
%TO.P,R14,1*%
%TO.N,GND*%
X80400000Y-50960000D03*
D17*
%TO.P,R14,2*%
%TO.N,Net-(Q2-Pad2)*%
X80400000Y-43340000D03*
%TD*%
D29*
%TO.P,RV3,1,1*%
%TO.N,+12V*%
X35950000Y-36725000D03*
%TO.P,RV3,2,2*%
%TO.N,Net-(R27-Pad2)*%
X38490000Y-39265000D03*
%TO.P,RV3,3,3*%
%TO.N,-12V*%
X41030000Y-36725000D03*
%TD*%
D30*
%TO.N,+12V*%
X82550000Y-57225000D03*
X49200000Y-32600000D03*
X77275000Y-62525000D03*
%TO.N,Net-(Q1-Pad1)*%
X36830000Y-72870000D03*
%TO.N,Net-(Q4-Pad2)*%
X72975000Y-50700000D03*
%TO.N,Net-(R15-Pad1)*%
X59100000Y-69000000D03*
X66125000Y-68800000D03*
%TO.N,Net-(R25-Pad1)*%
X56200000Y-68600000D03*
X54800000Y-73850000D03*
%TO.N,Net-(R28-Pad1)*%
X58000000Y-79650000D03*
%TO.N,Net-(R34-Pad1)*%
X57000000Y-80875000D03*
%TD*%
D31*
%TO.N,Net-(R1-Pad2)*%
X45250000Y-52850000D02*
X36110000Y-52850000D01*
X45900000Y-53500000D02*
X45250000Y-52850000D01*
X36110000Y-52850000D02*
X33900000Y-55060000D01*
X45900000Y-55100000D02*
X45900000Y-53500000D01*
%TO.N,Net-(R9-Pad2)*%
X43400000Y-58485000D02*
X42610000Y-59275000D01*
X43400000Y-55100000D02*
X43400000Y-58485000D01*
%TO.N,Net-(R25-Pad1)*%
X59300000Y-57415000D02*
X61850000Y-54865000D01*
X59300000Y-65500000D02*
X59300000Y-57415000D01*
X56200000Y-68600000D02*
X59300000Y-65500000D01*
%TO.N,IN1*%
X39270000Y-90550000D02*
X43400000Y-94680000D01*
X36350000Y-90550000D02*
X39270000Y-90550000D01*
%TO.N,IN2*%
X79050000Y-95150000D02*
X71670000Y-95150000D01*
X71670000Y-95150000D02*
X71200000Y-94680000D01*
X71200000Y-94715000D02*
X71635000Y-95150000D01*
%TO.N,Net-(C2-Pad2)*%
X79050000Y-100150000D02*
X79050000Y-101550000D01*
X79050000Y-101550000D02*
X83200000Y-105700000D01*
X83200000Y-105700000D02*
X83200000Y-105710000D01*
D32*
%TO.N,+12V*%
X82525000Y-64400000D02*
X81500000Y-65425000D01*
X32100000Y-45640000D02*
X33900000Y-47440000D01*
X63550000Y-85350000D02*
X63550000Y-87510000D01*
X77275000Y-62525000D02*
X72900000Y-58150000D01*
X29600000Y-47440000D02*
X33900000Y-47440000D01*
X35950000Y-36730000D02*
X32100000Y-40580000D01*
X77350000Y-32600000D02*
X81650000Y-36900000D01*
X74600000Y-80825000D02*
X68075000Y-80825000D01*
X35950000Y-32400000D02*
X35950000Y-36725000D01*
X52170000Y-20800000D02*
X47550000Y-20800000D01*
X82550000Y-41100000D02*
X81650000Y-40200000D01*
X72900000Y-58150000D02*
X68650000Y-58150000D01*
X49200000Y-32600000D02*
X77350000Y-32600000D01*
X77275000Y-78150000D02*
X74600000Y-80825000D01*
X77275000Y-62525000D02*
X77275000Y-78150000D01*
X47550000Y-20800000D02*
X35950000Y-32400000D01*
X81650000Y-40200000D02*
X81650000Y-38000000D01*
X82550000Y-57225000D02*
X82550000Y-41100000D01*
X32100000Y-40580000D02*
X32100000Y-45640000D01*
X68075000Y-80825000D02*
X63550000Y-85350000D01*
X68650000Y-58150000D02*
X66100000Y-60700000D01*
X82550000Y-57225000D02*
X82525000Y-57250000D01*
X29700000Y-36690000D02*
X35915000Y-36690000D01*
X82525000Y-57250000D02*
X82525000Y-64400000D01*
X81650000Y-36900000D02*
X81650000Y-38000000D01*
X81500000Y-65425000D02*
X81500000Y-68025000D01*
%TO.N,-12V*%
X52220000Y-26150000D02*
X47627401Y-26150000D01*
X52585000Y-58300000D02*
X54230000Y-59945000D01*
X47627401Y-26150000D02*
X41030000Y-32747401D01*
X50900000Y-58300000D02*
X52585000Y-58300000D01*
X41030000Y-32747401D02*
X41030000Y-36725000D01*
X78380000Y-29650000D02*
X81650000Y-32920000D01*
X50900000Y-55450000D02*
X50900000Y-58300000D01*
X41030000Y-36725000D02*
X41030000Y-45580000D01*
X41030000Y-45580000D02*
X50900000Y-55450000D01*
X55720000Y-29650000D02*
X78380000Y-29650000D01*
X52220000Y-26150000D02*
X55720000Y-29650000D01*
%TO.N,Net-(D1-Pad2)*%
X62330000Y-20800000D02*
X68680000Y-20800000D01*
X68680000Y-20800000D02*
X70240000Y-22360000D01*
X70240000Y-22360000D02*
X70240000Y-24900000D01*
%TO.N,Net-(D2-Pad1)*%
X63580000Y-27350000D02*
X79450000Y-27350000D01*
X79450000Y-27350000D02*
X80400000Y-26400000D01*
X62380000Y-26150000D02*
X63580000Y-27350000D01*
X80400000Y-22360000D02*
X80400000Y-24900000D01*
X80400000Y-26400000D02*
X80400000Y-24900000D01*
D31*
%TO.N,CV1*%
X30350000Y-77510000D02*
X42570000Y-77510000D01*
X42570000Y-77510000D02*
X43400000Y-76680000D01*
%TO.N,CV2*%
X64590000Y-73440000D02*
X64590000Y-51640000D01*
X67830000Y-76680000D02*
X64590000Y-73440000D01*
X64590000Y-51640000D02*
X62810000Y-49860000D01*
X62810000Y-49860000D02*
X62810000Y-44700000D01*
X71200000Y-76680000D02*
X67830000Y-76680000D01*
%TO.N,OUT2*%
X77870000Y-112680000D02*
X71200000Y-112680000D01*
X77890000Y-112700000D02*
X77870000Y-112680000D01*
%TO.N,OUT1*%
X34400000Y-116410000D02*
X38295000Y-112515000D01*
X38295000Y-112515000D02*
X43400000Y-112515000D01*
%TO.N,Net-(Q1-Pad1)*%
X36820000Y-72870000D02*
X34950000Y-71000000D01*
X28200000Y-65400000D02*
X28200000Y-45810000D01*
X34950000Y-71000000D02*
X33800000Y-71000000D01*
X28200000Y-45810000D02*
X29700000Y-44310000D01*
X33800000Y-71000000D02*
X28200000Y-65400000D01*
X36830000Y-72870000D02*
X36820000Y-72870000D01*
%TO.N,Net-(Q1-Pad2)*%
X32750000Y-91460000D02*
X32750000Y-95090000D01*
%TO.N,Net-(Q1-Pad3)*%
X37280000Y-63630000D02*
X39600000Y-65950000D01*
X36390000Y-63630000D02*
X37280000Y-63630000D01*
X39600000Y-65950000D02*
X41990000Y-65950000D01*
%TO.N,Net-(Q2-Pad1)*%
X60500000Y-77740000D02*
X60500000Y-77800000D01*
X62590000Y-79890000D02*
X63550000Y-79890000D01*
X60500000Y-77800000D02*
X62590000Y-79890000D01*
%TO.N,Net-(Q2-Pad2)*%
X80400000Y-41200000D02*
X80400000Y-43340000D01*
X75100000Y-37580000D02*
X76780000Y-37580000D01*
X76780000Y-37580000D02*
X80400000Y-41200000D01*
%TO.N,Net-(Q2-Pad3)*%
X65630000Y-38920000D02*
X62935000Y-36225000D01*
X70210000Y-38920000D02*
X65630000Y-38920000D01*
%TO.N,Net-(Q3-Pad1)*%
X42550000Y-64350000D02*
X49250000Y-71050000D01*
X49250000Y-71050000D02*
X52140000Y-71050000D01*
X32160000Y-63630000D02*
X33220000Y-63630000D01*
X29600000Y-61070000D02*
X32160000Y-63630000D01*
X39100000Y-62150000D02*
X41300000Y-64350000D01*
X34700000Y-62150000D02*
X39100000Y-62150000D01*
X41300000Y-64350000D02*
X42550000Y-64350000D01*
X33220000Y-63630000D02*
X34700000Y-62150000D01*
X29600000Y-55060000D02*
X29600000Y-61070000D01*
X52140000Y-71050000D02*
X53140000Y-72050000D01*
%TO.N,Net-(Q3-Pad2)*%
X33700000Y-67700000D02*
X33700000Y-65550000D01*
X41890000Y-69100000D02*
X41890000Y-72750000D01*
X33050000Y-64900000D02*
X32160000Y-64900000D01*
X33700000Y-65550000D02*
X33050000Y-64900000D01*
X41890000Y-69100000D02*
X35100000Y-69100000D01*
X35100000Y-69100000D02*
X33700000Y-67700000D01*
%TO.N,Net-(Q4-Pad1)*%
X72155000Y-36380000D02*
X73700000Y-37925000D01*
X78950000Y-76615000D02*
X81450000Y-79115000D01*
X73700000Y-37925000D02*
X73700000Y-49150000D01*
X73700000Y-49150000D02*
X78950000Y-54400000D01*
X70210000Y-36380000D02*
X72155000Y-36380000D01*
X81450000Y-79115000D02*
X81450000Y-75785000D01*
X81450000Y-75785000D02*
X81425000Y-75760000D01*
X78950000Y-54400000D02*
X78950000Y-76615000D01*
%TO.N,Net-(Q4-Pad2)*%
X72900000Y-38725000D02*
X71825000Y-37650000D01*
X71825000Y-37650000D02*
X70210000Y-37650000D01*
X72900000Y-50625000D02*
X72900000Y-38725000D01*
X72975000Y-50700000D02*
X72900000Y-50625000D01*
%TO.N,GND*%
X40835000Y-55060000D02*
X40900000Y-55125000D01*
%TO.N,Net-(C1-Pad2)*%
X32750000Y-102700000D02*
X36350000Y-99100000D01*
X36350000Y-99100000D02*
X36350000Y-95550000D01*
X32750000Y-102710000D02*
X32750000Y-102700000D01*
%TO.N,Net-(R16-Pad2)*%
X67525000Y-40875000D02*
X71200000Y-44550000D01*
X71200000Y-55100000D02*
X73700000Y-55100000D01*
X55225000Y-40875000D02*
X67525000Y-40875000D01*
X52050000Y-44050000D02*
X55225000Y-40875000D01*
X52050000Y-48960000D02*
X52050000Y-44050000D01*
X71200000Y-44550000D02*
X71200000Y-55100000D01*
%TO.N,Net-(R15-Pad2)*%
X59050000Y-70550000D02*
X60000000Y-69600000D01*
X53100000Y-70550000D02*
X59050000Y-70550000D01*
X60000000Y-66450000D02*
X61425000Y-65025000D01*
X60000000Y-69600000D02*
X60000000Y-66450000D01*
X61425000Y-65025000D02*
X61850000Y-65025000D01*
X48000000Y-67600000D02*
X50150000Y-67600000D01*
X50150000Y-67600000D02*
X53100000Y-70550000D01*
X43350000Y-62950000D02*
X48000000Y-67600000D01*
X38265000Y-59275000D02*
X41940000Y-62950000D01*
X34990000Y-59275000D02*
X38265000Y-59275000D01*
X41940000Y-62950000D02*
X43350000Y-62950000D01*
%TO.N,Net-(R11-Pad1)*%
X57140000Y-42750000D02*
X55190000Y-44700000D01*
X69325000Y-51575000D02*
X69325000Y-45175000D01*
X54230000Y-54865000D02*
X56800000Y-52295000D01*
X56800000Y-46310000D02*
X55190000Y-44700000D01*
X66900000Y-42750000D02*
X57140000Y-42750000D01*
X68700000Y-55100000D02*
X68700000Y-52200000D01*
X68700000Y-52200000D02*
X69325000Y-51575000D01*
X56800000Y-52295000D02*
X56800000Y-46310000D01*
X69325000Y-45175000D02*
X66900000Y-42750000D01*
%TO.N,Net-(R15-Pad1)*%
X59100000Y-69000000D02*
X58400000Y-69700000D01*
X53360000Y-69700000D02*
X49610000Y-65950000D01*
X70050000Y-68800000D02*
X73300000Y-72050000D01*
X58400000Y-69700000D02*
X53360000Y-69700000D01*
X49560000Y-65900000D02*
X49610000Y-65950000D01*
X66125000Y-68800000D02*
X70050000Y-68800000D01*
X49560000Y-62950000D02*
X49560000Y-65900000D01*
%TO.N,Net-(R16-Pad1)*%
X52050000Y-39490000D02*
X52050000Y-41340000D01*
X51360000Y-38800000D02*
X47375000Y-38800000D01*
X52050000Y-39490000D02*
X51360000Y-38800000D01*
X55315000Y-36225000D02*
X52050000Y-39490000D01*
%TO.N,Net-(R25-Pad1)*%
X29650000Y-98700000D02*
X29650000Y-101180000D01*
X29240000Y-98290000D02*
X29650000Y-98700000D01*
X54200000Y-74450000D02*
X54800000Y-73850000D01*
X29240000Y-80200000D02*
X29240000Y-98290000D01*
X29240000Y-80200000D02*
X28450000Y-79410000D01*
X28450000Y-76200000D02*
X30200000Y-74450000D01*
X28450000Y-79410000D02*
X28450000Y-76200000D01*
X30200000Y-74450000D02*
X54200000Y-74450000D01*
%TO.N,Net-(R28-Pad1)*%
X58000000Y-80600000D02*
X60500000Y-83100000D01*
X60500000Y-93515000D02*
X63575000Y-96590000D01*
X60500000Y-83100000D02*
X60500000Y-85360000D01*
X60500000Y-85360000D02*
X60500000Y-93515000D01*
X58000000Y-79650000D02*
X58000000Y-80600000D01*
%TO.N,Net-(R30-Pad2)*%
X84190000Y-35460000D02*
X84190000Y-43330000D01*
X84190000Y-43330000D02*
X84400000Y-43540000D01*
%TO.N,Net-(R33-Pad1)*%
X49250000Y-82650000D02*
X50450000Y-81450000D01*
X44560000Y-98700000D02*
X49250000Y-94010000D01*
X63950000Y-54425000D02*
X61850000Y-52325000D01*
X49250000Y-94010000D02*
X49250000Y-82650000D01*
X53950000Y-81450000D02*
X63950000Y-71450000D01*
X34390000Y-103760000D02*
X39450000Y-98700000D01*
X29650000Y-108800000D02*
X34390000Y-108800000D01*
X63950000Y-71450000D02*
X63950000Y-54425000D01*
X34390000Y-108800000D02*
X34390000Y-103760000D01*
X50450000Y-81450000D02*
X53950000Y-81450000D01*
X39450000Y-98700000D02*
X44560000Y-98700000D01*
%TO.N,Net-(R34-Pad1)*%
X63575000Y-104210000D02*
X63575000Y-106525000D01*
X63575000Y-99600000D02*
X63575000Y-104210000D01*
X82150000Y-112700000D02*
X85510000Y-112700000D01*
X57000000Y-80875000D02*
X57000000Y-93025000D01*
X77850000Y-108400000D02*
X82150000Y-112700000D01*
X57000000Y-93025000D02*
X63575000Y-99600000D01*
X65450000Y-108400000D02*
X77850000Y-108400000D01*
X63575000Y-106525000D02*
X65450000Y-108400000D01*
X57000000Y-93025000D02*
X57000000Y-99675000D01*
%TD*%
M02*
