%TF.GenerationSoftware,KiCad,Pcbnew,(6.0.1)*%
%TF.CreationDate,2022-09-11T09:08:46+02:00*%
%TF.ProjectId,front pannel,66726f6e-7420-4706-916e-6e656c2e6b69,rev?*%
%TF.SameCoordinates,Original*%
%TF.FileFunction,Copper,L2,Bot*%
%TF.FilePolarity,Positive*%
%FSLAX46Y46*%
G04 Gerber Fmt 4.6, Leading zero omitted, Abs format (unit mm)*
G04 Created by KiCad (PCBNEW (6.0.1)) date 2022-09-11 09:08:46*
%MOMM*%
%LPD*%
G01*
G04 APERTURE LIST*
%TA.AperFunction,Profile*%
%ADD10C,0.100000*%
%TD*%
G04 APERTURE END LIST*
D10*
X73700000Y-112750000D02*
G75*
G03*
X73700000Y-112750000I-3000000J0D01*
G01*
X34000000Y-145374805D02*
X35600000Y-145374805D01*
X79600000Y-22900000D02*
X78000000Y-22900000D01*
X35600000Y-148574999D02*
G75*
G03*
X35600000Y-145374805I0J1600097D01*
G01*
X34000000Y-145374805D02*
G75*
G03*
X34000000Y-148575195I0J-1600195D01*
G01*
X87100000Y-150000000D02*
X26500000Y-150000000D01*
X45900000Y-94750000D02*
G75*
G03*
X45900000Y-94750000I-3000000J0D01*
G01*
X87100000Y-21500000D02*
X87100000Y-150000000D01*
X35600195Y-26099999D02*
G75*
G03*
X35600195Y-22899805I0J1600097D01*
G01*
X78000000Y-145350000D02*
G75*
G03*
X78000000Y-148550000I0J-1600000D01*
G01*
X45900000Y-112750000D02*
G75*
G03*
X45900000Y-112750000I-3000000J0D01*
G01*
X34000195Y-26100195D02*
X35600195Y-26100195D01*
X34000195Y-22899805D02*
G75*
G03*
X34000195Y-26100195I0J-1600195D01*
G01*
X34000000Y-148575195D02*
X35600000Y-148575195D01*
X34000195Y-22899805D02*
X35600195Y-22899805D01*
X73700000Y-94750000D02*
G75*
G03*
X73700000Y-94750000I-3000000J0D01*
G01*
X46400000Y-60750000D02*
G75*
G03*
X46400000Y-60750000I-3500000J0D01*
G01*
X26500000Y-150000000D02*
X26500000Y-21500000D01*
X79600000Y-26100000D02*
G75*
G03*
X79600000Y-22900000I0J1600000D01*
G01*
X45900000Y-130750000D02*
G75*
G03*
X45900000Y-130750000I-3000000J0D01*
G01*
X79600000Y-145350000D02*
X78000000Y-145350000D01*
X26500000Y-21500000D02*
X87100000Y-21500000D01*
X78000000Y-22900000D02*
G75*
G03*
X78000000Y-26100000I0J-1600000D01*
G01*
X79600000Y-26100000D02*
X78000000Y-26100000D01*
X73700000Y-130750000D02*
G75*
G03*
X73700000Y-130750000I-3000000J0D01*
G01*
X79600000Y-148550000D02*
G75*
G03*
X79600000Y-145350000I0J1600000D01*
G01*
X74200000Y-60750000D02*
G75*
G03*
X74200000Y-60750000I-3500000J0D01*
G01*
X79600000Y-148550000D02*
X78000000Y-148550000D01*
%TA.AperFunction,NonConductor*%
G36*
X86459121Y-22103002D02*
G01*
X86505614Y-22156658D01*
X86517000Y-22209000D01*
X86517000Y-149291000D01*
X86496998Y-149359121D01*
X86443342Y-149405614D01*
X86391000Y-149417000D01*
X27209000Y-149417000D01*
X27140879Y-149396998D01*
X27094386Y-149343342D01*
X27083000Y-149291000D01*
X27083000Y-146975000D01*
X31887282Y-146975000D01*
X31887552Y-146979119D01*
X31903982Y-147229783D01*
X31905357Y-147250765D01*
X31959271Y-147521812D01*
X31960596Y-147525715D01*
X31960597Y-147525719D01*
X32040847Y-147762126D01*
X32048103Y-147783502D01*
X32049926Y-147787198D01*
X32049929Y-147787206D01*
X32094920Y-147878437D01*
X32170333Y-148031359D01*
X32323868Y-148261141D01*
X32326582Y-148264235D01*
X32326586Y-148264241D01*
X32486413Y-148446488D01*
X32506083Y-148468917D01*
X32509172Y-148471626D01*
X32710759Y-148648414D01*
X32710765Y-148648418D01*
X32713859Y-148651132D01*
X32880723Y-148762627D01*
X32908709Y-148781326D01*
X32943641Y-148804667D01*
X32947344Y-148806493D01*
X33187794Y-148925071D01*
X33187802Y-148925074D01*
X33191498Y-148926897D01*
X33195413Y-148928226D01*
X33449281Y-149014403D01*
X33449285Y-149014404D01*
X33453188Y-149015729D01*
X33655317Y-149055935D01*
X33720192Y-149068839D01*
X33720195Y-149068839D01*
X33724235Y-149069643D01*
X33728346Y-149069912D01*
X33728350Y-149069913D01*
X33817160Y-149075734D01*
X33967761Y-149085605D01*
X33980403Y-149087079D01*
X33987461Y-149088266D01*
X33993816Y-149088344D01*
X33995141Y-149088360D01*
X33995145Y-149088360D01*
X34000000Y-149088419D01*
X34027588Y-149084468D01*
X34045451Y-149083195D01*
X35547958Y-149083195D01*
X35568862Y-149084941D01*
X35587461Y-149088070D01*
X35593517Y-149088144D01*
X35595130Y-149088164D01*
X35595135Y-149088164D01*
X35600000Y-149088223D01*
X35604817Y-149087533D01*
X35605415Y-149087494D01*
X35613864Y-149086613D01*
X35871637Y-149069718D01*
X35871641Y-149069717D01*
X35875752Y-149069448D01*
X35879792Y-149068644D01*
X35879795Y-149068644D01*
X36142741Y-149016341D01*
X36142747Y-149016339D01*
X36146786Y-149015536D01*
X36150690Y-149014211D01*
X36150693Y-149014210D01*
X36404559Y-148928034D01*
X36404560Y-148928033D01*
X36408465Y-148926708D01*
X36525845Y-148868823D01*
X36652606Y-148806312D01*
X36652611Y-148806309D01*
X36656310Y-148804485D01*
X36710153Y-148768508D01*
X36882651Y-148653249D01*
X36882656Y-148653245D01*
X36886082Y-148650956D01*
X36889176Y-148648242D01*
X36889182Y-148648238D01*
X37090759Y-148471459D01*
X37093848Y-148468750D01*
X37273198Y-148264241D01*
X37273336Y-148264084D01*
X37273340Y-148264078D01*
X37276054Y-148260984D01*
X37290662Y-148239123D01*
X37425840Y-148036814D01*
X37429583Y-148031212D01*
X37460628Y-147968260D01*
X37504923Y-147878437D01*
X37551806Y-147783367D01*
X37561598Y-147754522D01*
X37639308Y-147525595D01*
X37639309Y-147525592D01*
X37640634Y-147521688D01*
X37644816Y-147500668D01*
X37693742Y-147254697D01*
X37693742Y-147254694D01*
X37694546Y-147250654D01*
X37712620Y-146974902D01*
X37710988Y-146950000D01*
X75887477Y-146950000D01*
X75905550Y-147225740D01*
X75906354Y-147229780D01*
X75906354Y-147229783D01*
X75910506Y-147250654D01*
X75959459Y-147496761D01*
X75960784Y-147500665D01*
X75960785Y-147500668D01*
X75969247Y-147525595D01*
X76048283Y-147758428D01*
X76060582Y-147783367D01*
X76151761Y-147968260D01*
X76170501Y-148006262D01*
X76324023Y-148236023D01*
X76326737Y-148239117D01*
X76326741Y-148239123D01*
X76503512Y-148440690D01*
X76506221Y-148443779D01*
X76509310Y-148446488D01*
X76710877Y-148623259D01*
X76710883Y-148623263D01*
X76713977Y-148625977D01*
X76717403Y-148628266D01*
X76717408Y-148628270D01*
X76751624Y-148651132D01*
X76943739Y-148779499D01*
X76947438Y-148781323D01*
X76947443Y-148781326D01*
X76998110Y-148806312D01*
X77191572Y-148901717D01*
X77195477Y-148903042D01*
X77195478Y-148903043D01*
X77449332Y-148989215D01*
X77449335Y-148989216D01*
X77453239Y-148990541D01*
X77457278Y-148991344D01*
X77457284Y-148991346D01*
X77720217Y-149043646D01*
X77720220Y-149043646D01*
X77724260Y-149044450D01*
X77728371Y-149044719D01*
X77728375Y-149044720D01*
X77817277Y-149050547D01*
X77967761Y-149060410D01*
X77980403Y-149061884D01*
X77987461Y-149063071D01*
X77993816Y-149063149D01*
X77995141Y-149063165D01*
X77995145Y-149063165D01*
X78000000Y-149063224D01*
X78027588Y-149059273D01*
X78045451Y-149058000D01*
X79546793Y-149058000D01*
X79567697Y-149059746D01*
X79587461Y-149063071D01*
X79593517Y-149063145D01*
X79595130Y-149063165D01*
X79595135Y-149063165D01*
X79600000Y-149063224D01*
X79604817Y-149062534D01*
X79605415Y-149062495D01*
X79613864Y-149061614D01*
X79871625Y-149044720D01*
X79871629Y-149044719D01*
X79875740Y-149044450D01*
X79879780Y-149043646D01*
X79879783Y-149043646D01*
X80142716Y-148991346D01*
X80142722Y-148991344D01*
X80146761Y-148990541D01*
X80150665Y-148989216D01*
X80150668Y-148989215D01*
X80404522Y-148903043D01*
X80404523Y-148903042D01*
X80408428Y-148901717D01*
X80525693Y-148843889D01*
X80652558Y-148781326D01*
X80652563Y-148781323D01*
X80656262Y-148779499D01*
X80845208Y-148653249D01*
X80882592Y-148628270D01*
X80882597Y-148628266D01*
X80886023Y-148625977D01*
X80889117Y-148623263D01*
X80889123Y-148623259D01*
X81090690Y-148446488D01*
X81093779Y-148443779D01*
X81096488Y-148440690D01*
X81273259Y-148239123D01*
X81273263Y-148239117D01*
X81275977Y-148236023D01*
X81429499Y-148006262D01*
X81448240Y-147968260D01*
X81539418Y-147783367D01*
X81551717Y-147758428D01*
X81630753Y-147525595D01*
X81639215Y-147500668D01*
X81639216Y-147500665D01*
X81640541Y-147496761D01*
X81689495Y-147250654D01*
X81693646Y-147229783D01*
X81693646Y-147229780D01*
X81694450Y-147225740D01*
X81712523Y-146950000D01*
X81696087Y-146699235D01*
X81694720Y-146678375D01*
X81694719Y-146678371D01*
X81694450Y-146674260D01*
X81652479Y-146463254D01*
X81641346Y-146407284D01*
X81641344Y-146407278D01*
X81640541Y-146403239D01*
X81561484Y-146170343D01*
X81553043Y-146145478D01*
X81553042Y-146145477D01*
X81551717Y-146141572D01*
X81448239Y-145931740D01*
X81431326Y-145897443D01*
X81431323Y-145897438D01*
X81429499Y-145893739D01*
X81392902Y-145838968D01*
X81278270Y-145667408D01*
X81278266Y-145667403D01*
X81275977Y-145663977D01*
X81273263Y-145660883D01*
X81273259Y-145660877D01*
X81096488Y-145459310D01*
X81093779Y-145456221D01*
X81090690Y-145453512D01*
X80889123Y-145276741D01*
X80889117Y-145276737D01*
X80886023Y-145274023D01*
X80882597Y-145271734D01*
X80882592Y-145271730D01*
X80659695Y-145122795D01*
X80656262Y-145120501D01*
X80652563Y-145118677D01*
X80652558Y-145118674D01*
X80525693Y-145056111D01*
X80408428Y-144998283D01*
X80404522Y-144996957D01*
X80150668Y-144910785D01*
X80150665Y-144910784D01*
X80146761Y-144909459D01*
X80142722Y-144908656D01*
X80142716Y-144908654D01*
X79879783Y-144856354D01*
X79879780Y-144856354D01*
X79875740Y-144855550D01*
X79871629Y-144855281D01*
X79871625Y-144855280D01*
X79782723Y-144849453D01*
X79632239Y-144839590D01*
X79619597Y-144838116D01*
X79612539Y-144836929D01*
X79606184Y-144836851D01*
X79604859Y-144836835D01*
X79604855Y-144836835D01*
X79600000Y-144836776D01*
X79575715Y-144840254D01*
X79572412Y-144840727D01*
X79554549Y-144842000D01*
X78053207Y-144842000D01*
X78032303Y-144840254D01*
X78021199Y-144838386D01*
X78012539Y-144836929D01*
X78006483Y-144836855D01*
X78004870Y-144836835D01*
X78004865Y-144836835D01*
X78000000Y-144836776D01*
X77995183Y-144837466D01*
X77994585Y-144837505D01*
X77986136Y-144838386D01*
X77728375Y-144855280D01*
X77728371Y-144855281D01*
X77724260Y-144855550D01*
X77720220Y-144856354D01*
X77720217Y-144856354D01*
X77457284Y-144908654D01*
X77457278Y-144908656D01*
X77453239Y-144909459D01*
X77449335Y-144910784D01*
X77449332Y-144910785D01*
X77195478Y-144996957D01*
X77191572Y-144998283D01*
X77074440Y-145056046D01*
X76947443Y-145118674D01*
X76947438Y-145118677D01*
X76943739Y-145120501D01*
X76940306Y-145122795D01*
X76717408Y-145271730D01*
X76717403Y-145271734D01*
X76713977Y-145274023D01*
X76710883Y-145276737D01*
X76710877Y-145276741D01*
X76509310Y-145453512D01*
X76506221Y-145456221D01*
X76503512Y-145459310D01*
X76326741Y-145660877D01*
X76326737Y-145660883D01*
X76324023Y-145663977D01*
X76321734Y-145667403D01*
X76321730Y-145667408D01*
X76207098Y-145838968D01*
X76170501Y-145893739D01*
X76168677Y-145897438D01*
X76168674Y-145897443D01*
X76151761Y-145931740D01*
X76048283Y-146141572D01*
X76046958Y-146145477D01*
X76046957Y-146145478D01*
X76038517Y-146170343D01*
X75959459Y-146403239D01*
X75958656Y-146407278D01*
X75958654Y-146407284D01*
X75947521Y-146463254D01*
X75905550Y-146674260D01*
X75905281Y-146678371D01*
X75905280Y-146678375D01*
X75903913Y-146699235D01*
X75887477Y-146950000D01*
X37710988Y-146950000D01*
X37704384Y-146849243D01*
X37694816Y-146703265D01*
X37694815Y-146703261D01*
X37694546Y-146699150D01*
X37690414Y-146678375D01*
X37641439Y-146432161D01*
X37641437Y-146432155D01*
X37640634Y-146428116D01*
X37633563Y-146407284D01*
X37553132Y-146170343D01*
X37553131Y-146170342D01*
X37551806Y-146166437D01*
X37492602Y-146046382D01*
X37431410Y-145922296D01*
X37431407Y-145922291D01*
X37429583Y-145918592D01*
X37276054Y-145688820D01*
X37273340Y-145685726D01*
X37273336Y-145685720D01*
X37096557Y-145484143D01*
X37093848Y-145481054D01*
X37069054Y-145459310D01*
X36889182Y-145301566D01*
X36889176Y-145301562D01*
X36886082Y-145298848D01*
X36882656Y-145296559D01*
X36882651Y-145296555D01*
X36710153Y-145181296D01*
X36656310Y-145145319D01*
X36652611Y-145143495D01*
X36652606Y-145143492D01*
X36525845Y-145080981D01*
X36408465Y-145023096D01*
X36340742Y-145000107D01*
X36150693Y-144935594D01*
X36150690Y-144935593D01*
X36146786Y-144934268D01*
X36142747Y-144933465D01*
X36142741Y-144933463D01*
X35879795Y-144881160D01*
X35879792Y-144881160D01*
X35875752Y-144880356D01*
X35871641Y-144880087D01*
X35871637Y-144880086D01*
X35782790Y-144874263D01*
X35632239Y-144864395D01*
X35619597Y-144862921D01*
X35612539Y-144861734D01*
X35606184Y-144861656D01*
X35604859Y-144861640D01*
X35604855Y-144861640D01*
X35600000Y-144861581D01*
X35575715Y-144865059D01*
X35572412Y-144865532D01*
X35554549Y-144866805D01*
X34053207Y-144866805D01*
X34032303Y-144865059D01*
X34021199Y-144863191D01*
X34012539Y-144861734D01*
X34006483Y-144861660D01*
X34004870Y-144861640D01*
X34004865Y-144861640D01*
X34000000Y-144861581D01*
X33995183Y-144862271D01*
X33994585Y-144862310D01*
X33986136Y-144863191D01*
X33728350Y-144880087D01*
X33728346Y-144880088D01*
X33724235Y-144880357D01*
X33720195Y-144881161D01*
X33720192Y-144881161D01*
X33655317Y-144894065D01*
X33453188Y-144934271D01*
X33449285Y-144935596D01*
X33449281Y-144935597D01*
X33268521Y-144996957D01*
X33191498Y-145023103D01*
X33187802Y-145024926D01*
X33187794Y-145024929D01*
X32997700Y-145118674D01*
X32943641Y-145145333D01*
X32713859Y-145298868D01*
X32710765Y-145301582D01*
X32710759Y-145301586D01*
X32537522Y-145453512D01*
X32506083Y-145481083D01*
X32503374Y-145484172D01*
X32326586Y-145685759D01*
X32326582Y-145685765D01*
X32323868Y-145688859D01*
X32212373Y-145855723D01*
X32172660Y-145915159D01*
X32170333Y-145918641D01*
X32168507Y-145922344D01*
X32049929Y-146162794D01*
X32049926Y-146162802D01*
X32048103Y-146166498D01*
X32046774Y-146170413D01*
X31960622Y-146424209D01*
X31959271Y-146428188D01*
X31905357Y-146699235D01*
X31887282Y-146975000D01*
X27083000Y-146975000D01*
X27083000Y-130750000D01*
X39387186Y-130750000D01*
X39406430Y-131117189D01*
X39463949Y-131480355D01*
X39559115Y-131835519D01*
X39690885Y-132178790D01*
X39857814Y-132506407D01*
X40058074Y-132814780D01*
X40060149Y-132817343D01*
X40060156Y-132817352D01*
X40089886Y-132854065D01*
X40289470Y-133100531D01*
X40549469Y-133360530D01*
X40552044Y-133362615D01*
X40832648Y-133589844D01*
X40832657Y-133589851D01*
X40835220Y-133591926D01*
X41143593Y-133792186D01*
X41313863Y-133878943D01*
X41468275Y-133957620D01*
X41468282Y-133957623D01*
X41471210Y-133959115D01*
X41474282Y-133960294D01*
X41474286Y-133960296D01*
X41598899Y-134008130D01*
X41814481Y-134090885D01*
X42169645Y-134186051D01*
X42172895Y-134186566D01*
X42172901Y-134186567D01*
X42442280Y-134229232D01*
X42532811Y-134243570D01*
X42536096Y-134243742D01*
X42536104Y-134243743D01*
X42896699Y-134262641D01*
X42900000Y-134262814D01*
X42903301Y-134262641D01*
X43263896Y-134243743D01*
X43263904Y-134243742D01*
X43267189Y-134243570D01*
X43357720Y-134229232D01*
X43627099Y-134186567D01*
X43627105Y-134186566D01*
X43630355Y-134186051D01*
X43985519Y-134090885D01*
X44201101Y-134008130D01*
X44325714Y-133960296D01*
X44325718Y-133960294D01*
X44328790Y-133959115D01*
X44331718Y-133957623D01*
X44331725Y-133957620D01*
X44486137Y-133878943D01*
X44656407Y-133792186D01*
X44964780Y-133591926D01*
X44967343Y-133589851D01*
X44967352Y-133589844D01*
X45247956Y-133362615D01*
X45250531Y-133360530D01*
X45510530Y-133100531D01*
X45710114Y-132854065D01*
X45739844Y-132817352D01*
X45739851Y-132817343D01*
X45741926Y-132814780D01*
X45942186Y-132506407D01*
X46109115Y-132178790D01*
X46240885Y-131835519D01*
X46336051Y-131480355D01*
X46393570Y-131117189D01*
X46412814Y-130750000D01*
X67187186Y-130750000D01*
X67206430Y-131117189D01*
X67263949Y-131480355D01*
X67359115Y-131835519D01*
X67490885Y-132178790D01*
X67657814Y-132506407D01*
X67858074Y-132814780D01*
X67860149Y-132817343D01*
X67860156Y-132817352D01*
X67889886Y-132854065D01*
X68089470Y-133100531D01*
X68349469Y-133360530D01*
X68352044Y-133362615D01*
X68632648Y-133589844D01*
X68632657Y-133589851D01*
X68635220Y-133591926D01*
X68943593Y-133792186D01*
X69113863Y-133878943D01*
X69268275Y-133957620D01*
X69268282Y-133957623D01*
X69271210Y-133959115D01*
X69274282Y-133960294D01*
X69274286Y-133960296D01*
X69398899Y-134008130D01*
X69614481Y-134090885D01*
X69969645Y-134186051D01*
X69972895Y-134186566D01*
X69972901Y-134186567D01*
X70242280Y-134229232D01*
X70332811Y-134243570D01*
X70336096Y-134243742D01*
X70336104Y-134243743D01*
X70696699Y-134262641D01*
X70700000Y-134262814D01*
X70703301Y-134262641D01*
X71063896Y-134243743D01*
X71063904Y-134243742D01*
X71067189Y-134243570D01*
X71157720Y-134229232D01*
X71427099Y-134186567D01*
X71427105Y-134186566D01*
X71430355Y-134186051D01*
X71785519Y-134090885D01*
X72001101Y-134008130D01*
X72125714Y-133960296D01*
X72125718Y-133960294D01*
X72128790Y-133959115D01*
X72131718Y-133957623D01*
X72131725Y-133957620D01*
X72286137Y-133878943D01*
X72456407Y-133792186D01*
X72764780Y-133591926D01*
X72767343Y-133589851D01*
X72767352Y-133589844D01*
X73047956Y-133362615D01*
X73050531Y-133360530D01*
X73310530Y-133100531D01*
X73510114Y-132854065D01*
X73539844Y-132817352D01*
X73539851Y-132817343D01*
X73541926Y-132814780D01*
X73742186Y-132506407D01*
X73909115Y-132178790D01*
X74040885Y-131835519D01*
X74136051Y-131480355D01*
X74193570Y-131117189D01*
X74212814Y-130750000D01*
X74193570Y-130382811D01*
X74136051Y-130019645D01*
X74040885Y-129664481D01*
X73909115Y-129321210D01*
X73742186Y-128993593D01*
X73541926Y-128685220D01*
X73539851Y-128682657D01*
X73539844Y-128682648D01*
X73312615Y-128402044D01*
X73310530Y-128399469D01*
X73050531Y-128139470D01*
X72992140Y-128092186D01*
X72767352Y-127910156D01*
X72767343Y-127910149D01*
X72764780Y-127908074D01*
X72456407Y-127707814D01*
X72286137Y-127621057D01*
X72131725Y-127542380D01*
X72131718Y-127542377D01*
X72128790Y-127540885D01*
X72125718Y-127539706D01*
X72125714Y-127539704D01*
X72001101Y-127491870D01*
X71785519Y-127409115D01*
X71430355Y-127313949D01*
X71427105Y-127313434D01*
X71427099Y-127313433D01*
X71157720Y-127270768D01*
X71067189Y-127256430D01*
X71063904Y-127256258D01*
X71063896Y-127256257D01*
X70703301Y-127237359D01*
X70700000Y-127237186D01*
X70696699Y-127237359D01*
X70336104Y-127256257D01*
X70336096Y-127256258D01*
X70332811Y-127256430D01*
X70242280Y-127270768D01*
X69972901Y-127313433D01*
X69972895Y-127313434D01*
X69969645Y-127313949D01*
X69614481Y-127409115D01*
X69398899Y-127491870D01*
X69274286Y-127539704D01*
X69274282Y-127539706D01*
X69271210Y-127540885D01*
X69268282Y-127542377D01*
X69268275Y-127542380D01*
X69113863Y-127621057D01*
X68943593Y-127707814D01*
X68635220Y-127908074D01*
X68632657Y-127910149D01*
X68632648Y-127910156D01*
X68407860Y-128092186D01*
X68349469Y-128139470D01*
X68089470Y-128399469D01*
X68087385Y-128402044D01*
X67860156Y-128682648D01*
X67860149Y-128682657D01*
X67858074Y-128685220D01*
X67657814Y-128993593D01*
X67490885Y-129321210D01*
X67359115Y-129664481D01*
X67263949Y-130019645D01*
X67206430Y-130382811D01*
X67187186Y-130750000D01*
X46412814Y-130750000D01*
X46393570Y-130382811D01*
X46336051Y-130019645D01*
X46240885Y-129664481D01*
X46109115Y-129321210D01*
X45942186Y-128993593D01*
X45741926Y-128685220D01*
X45739851Y-128682657D01*
X45739844Y-128682648D01*
X45512615Y-128402044D01*
X45510530Y-128399469D01*
X45250531Y-128139470D01*
X45192140Y-128092186D01*
X44967352Y-127910156D01*
X44967343Y-127910149D01*
X44964780Y-127908074D01*
X44656407Y-127707814D01*
X44486137Y-127621057D01*
X44331725Y-127542380D01*
X44331718Y-127542377D01*
X44328790Y-127540885D01*
X44325718Y-127539706D01*
X44325714Y-127539704D01*
X44201101Y-127491870D01*
X43985519Y-127409115D01*
X43630355Y-127313949D01*
X43627105Y-127313434D01*
X43627099Y-127313433D01*
X43357720Y-127270768D01*
X43267189Y-127256430D01*
X43263904Y-127256258D01*
X43263896Y-127256257D01*
X42903301Y-127237359D01*
X42900000Y-127237186D01*
X42896699Y-127237359D01*
X42536104Y-127256257D01*
X42536096Y-127256258D01*
X42532811Y-127256430D01*
X42442280Y-127270768D01*
X42172901Y-127313433D01*
X42172895Y-127313434D01*
X42169645Y-127313949D01*
X41814481Y-127409115D01*
X41598899Y-127491870D01*
X41474286Y-127539704D01*
X41474282Y-127539706D01*
X41471210Y-127540885D01*
X41468282Y-127542377D01*
X41468275Y-127542380D01*
X41313863Y-127621057D01*
X41143593Y-127707814D01*
X40835220Y-127908074D01*
X40832657Y-127910149D01*
X40832648Y-127910156D01*
X40607860Y-128092186D01*
X40549469Y-128139470D01*
X40289470Y-128399469D01*
X40287385Y-128402044D01*
X40060156Y-128682648D01*
X40060149Y-128682657D01*
X40058074Y-128685220D01*
X39857814Y-128993593D01*
X39690885Y-129321210D01*
X39559115Y-129664481D01*
X39463949Y-130019645D01*
X39406430Y-130382811D01*
X39387186Y-130750000D01*
X27083000Y-130750000D01*
X27083000Y-112750000D01*
X39387186Y-112750000D01*
X39406430Y-113117189D01*
X39463949Y-113480355D01*
X39559115Y-113835519D01*
X39690885Y-114178790D01*
X39857814Y-114506407D01*
X40058074Y-114814780D01*
X40060149Y-114817343D01*
X40060156Y-114817352D01*
X40089886Y-114854065D01*
X40289470Y-115100531D01*
X40549469Y-115360530D01*
X40552044Y-115362615D01*
X40832648Y-115589844D01*
X40832657Y-115589851D01*
X40835220Y-115591926D01*
X41143593Y-115792186D01*
X41313863Y-115878943D01*
X41468275Y-115957620D01*
X41468282Y-115957623D01*
X41471210Y-115959115D01*
X41474282Y-115960294D01*
X41474286Y-115960296D01*
X41598899Y-116008130D01*
X41814481Y-116090885D01*
X42169645Y-116186051D01*
X42172895Y-116186566D01*
X42172901Y-116186567D01*
X42442280Y-116229232D01*
X42532811Y-116243570D01*
X42536096Y-116243742D01*
X42536104Y-116243743D01*
X42896699Y-116262641D01*
X42900000Y-116262814D01*
X42903301Y-116262641D01*
X43263896Y-116243743D01*
X43263904Y-116243742D01*
X43267189Y-116243570D01*
X43357720Y-116229232D01*
X43627099Y-116186567D01*
X43627105Y-116186566D01*
X43630355Y-116186051D01*
X43985519Y-116090885D01*
X44201101Y-116008130D01*
X44325714Y-115960296D01*
X44325718Y-115960294D01*
X44328790Y-115959115D01*
X44331718Y-115957623D01*
X44331725Y-115957620D01*
X44486137Y-115878943D01*
X44656407Y-115792186D01*
X44964780Y-115591926D01*
X44967343Y-115589851D01*
X44967352Y-115589844D01*
X45247956Y-115362615D01*
X45250531Y-115360530D01*
X45510530Y-115100531D01*
X45710114Y-114854065D01*
X45739844Y-114817352D01*
X45739851Y-114817343D01*
X45741926Y-114814780D01*
X45942186Y-114506407D01*
X46109115Y-114178790D01*
X46240885Y-113835519D01*
X46336051Y-113480355D01*
X46393570Y-113117189D01*
X46412814Y-112750000D01*
X67187186Y-112750000D01*
X67206430Y-113117189D01*
X67263949Y-113480355D01*
X67359115Y-113835519D01*
X67490885Y-114178790D01*
X67657814Y-114506407D01*
X67858074Y-114814780D01*
X67860149Y-114817343D01*
X67860156Y-114817352D01*
X67889886Y-114854065D01*
X68089470Y-115100531D01*
X68349469Y-115360530D01*
X68352044Y-115362615D01*
X68632648Y-115589844D01*
X68632657Y-115589851D01*
X68635220Y-115591926D01*
X68943593Y-115792186D01*
X69113863Y-115878943D01*
X69268275Y-115957620D01*
X69268282Y-115957623D01*
X69271210Y-115959115D01*
X69274282Y-115960294D01*
X69274286Y-115960296D01*
X69398899Y-116008130D01*
X69614481Y-116090885D01*
X69969645Y-116186051D01*
X69972895Y-116186566D01*
X69972901Y-116186567D01*
X70242280Y-116229232D01*
X70332811Y-116243570D01*
X70336096Y-116243742D01*
X70336104Y-116243743D01*
X70696699Y-116262641D01*
X70700000Y-116262814D01*
X70703301Y-116262641D01*
X71063896Y-116243743D01*
X71063904Y-116243742D01*
X71067189Y-116243570D01*
X71157720Y-116229232D01*
X71427099Y-116186567D01*
X71427105Y-116186566D01*
X71430355Y-116186051D01*
X71785519Y-116090885D01*
X72001101Y-116008130D01*
X72125714Y-115960296D01*
X72125718Y-115960294D01*
X72128790Y-115959115D01*
X72131718Y-115957623D01*
X72131725Y-115957620D01*
X72286137Y-115878943D01*
X72456407Y-115792186D01*
X72764780Y-115591926D01*
X72767343Y-115589851D01*
X72767352Y-115589844D01*
X73047956Y-115362615D01*
X73050531Y-115360530D01*
X73310530Y-115100531D01*
X73510114Y-114854065D01*
X73539844Y-114817352D01*
X73539851Y-114817343D01*
X73541926Y-114814780D01*
X73742186Y-114506407D01*
X73909115Y-114178790D01*
X74040885Y-113835519D01*
X74136051Y-113480355D01*
X74193570Y-113117189D01*
X74212814Y-112750000D01*
X74193570Y-112382811D01*
X74136051Y-112019645D01*
X74040885Y-111664481D01*
X73909115Y-111321210D01*
X73742186Y-110993593D01*
X73541926Y-110685220D01*
X73539851Y-110682657D01*
X73539844Y-110682648D01*
X73312615Y-110402044D01*
X73310530Y-110399469D01*
X73050531Y-110139470D01*
X72992140Y-110092186D01*
X72767352Y-109910156D01*
X72767343Y-109910149D01*
X72764780Y-109908074D01*
X72456407Y-109707814D01*
X72286137Y-109621057D01*
X72131725Y-109542380D01*
X72131718Y-109542377D01*
X72128790Y-109540885D01*
X72125718Y-109539706D01*
X72125714Y-109539704D01*
X72001101Y-109491870D01*
X71785519Y-109409115D01*
X71430355Y-109313949D01*
X71427105Y-109313434D01*
X71427099Y-109313433D01*
X71157720Y-109270768D01*
X71067189Y-109256430D01*
X71063904Y-109256258D01*
X71063896Y-109256257D01*
X70703301Y-109237359D01*
X70700000Y-109237186D01*
X70696699Y-109237359D01*
X70336104Y-109256257D01*
X70336096Y-109256258D01*
X70332811Y-109256430D01*
X70242280Y-109270768D01*
X69972901Y-109313433D01*
X69972895Y-109313434D01*
X69969645Y-109313949D01*
X69614481Y-109409115D01*
X69398899Y-109491870D01*
X69274286Y-109539704D01*
X69274282Y-109539706D01*
X69271210Y-109540885D01*
X69268282Y-109542377D01*
X69268275Y-109542380D01*
X69113863Y-109621057D01*
X68943593Y-109707814D01*
X68635220Y-109908074D01*
X68632657Y-109910149D01*
X68632648Y-109910156D01*
X68407860Y-110092186D01*
X68349469Y-110139470D01*
X68089470Y-110399469D01*
X68087385Y-110402044D01*
X67860156Y-110682648D01*
X67860149Y-110682657D01*
X67858074Y-110685220D01*
X67657814Y-110993593D01*
X67490885Y-111321210D01*
X67359115Y-111664481D01*
X67263949Y-112019645D01*
X67206430Y-112382811D01*
X67187186Y-112750000D01*
X46412814Y-112750000D01*
X46393570Y-112382811D01*
X46336051Y-112019645D01*
X46240885Y-111664481D01*
X46109115Y-111321210D01*
X45942186Y-110993593D01*
X45741926Y-110685220D01*
X45739851Y-110682657D01*
X45739844Y-110682648D01*
X45512615Y-110402044D01*
X45510530Y-110399469D01*
X45250531Y-110139470D01*
X45192140Y-110092186D01*
X44967352Y-109910156D01*
X44967343Y-109910149D01*
X44964780Y-109908074D01*
X44656407Y-109707814D01*
X44486137Y-109621057D01*
X44331725Y-109542380D01*
X44331718Y-109542377D01*
X44328790Y-109540885D01*
X44325718Y-109539706D01*
X44325714Y-109539704D01*
X44201101Y-109491870D01*
X43985519Y-109409115D01*
X43630355Y-109313949D01*
X43627105Y-109313434D01*
X43627099Y-109313433D01*
X43357720Y-109270768D01*
X43267189Y-109256430D01*
X43263904Y-109256258D01*
X43263896Y-109256257D01*
X42903301Y-109237359D01*
X42900000Y-109237186D01*
X42896699Y-109237359D01*
X42536104Y-109256257D01*
X42536096Y-109256258D01*
X42532811Y-109256430D01*
X42442280Y-109270768D01*
X42172901Y-109313433D01*
X42172895Y-109313434D01*
X42169645Y-109313949D01*
X41814481Y-109409115D01*
X41598899Y-109491870D01*
X41474286Y-109539704D01*
X41474282Y-109539706D01*
X41471210Y-109540885D01*
X41468282Y-109542377D01*
X41468275Y-109542380D01*
X41313863Y-109621057D01*
X41143593Y-109707814D01*
X40835220Y-109908074D01*
X40832657Y-109910149D01*
X40832648Y-109910156D01*
X40607860Y-110092186D01*
X40549469Y-110139470D01*
X40289470Y-110399469D01*
X40287385Y-110402044D01*
X40060156Y-110682648D01*
X40060149Y-110682657D01*
X40058074Y-110685220D01*
X39857814Y-110993593D01*
X39690885Y-111321210D01*
X39559115Y-111664481D01*
X39463949Y-112019645D01*
X39406430Y-112382811D01*
X39387186Y-112750000D01*
X27083000Y-112750000D01*
X27083000Y-94750000D01*
X39387186Y-94750000D01*
X39406430Y-95117189D01*
X39463949Y-95480355D01*
X39559115Y-95835519D01*
X39690885Y-96178790D01*
X39857814Y-96506407D01*
X40058074Y-96814780D01*
X40060149Y-96817343D01*
X40060156Y-96817352D01*
X40089886Y-96854065D01*
X40289470Y-97100531D01*
X40549469Y-97360530D01*
X40552044Y-97362615D01*
X40832648Y-97589844D01*
X40832657Y-97589851D01*
X40835220Y-97591926D01*
X41143593Y-97792186D01*
X41313863Y-97878943D01*
X41468275Y-97957620D01*
X41468282Y-97957623D01*
X41471210Y-97959115D01*
X41474282Y-97960294D01*
X41474286Y-97960296D01*
X41598899Y-98008130D01*
X41814481Y-98090885D01*
X42169645Y-98186051D01*
X42172895Y-98186566D01*
X42172901Y-98186567D01*
X42442280Y-98229232D01*
X42532811Y-98243570D01*
X42536096Y-98243742D01*
X42536104Y-98243743D01*
X42896699Y-98262641D01*
X42900000Y-98262814D01*
X42903301Y-98262641D01*
X43263896Y-98243743D01*
X43263904Y-98243742D01*
X43267189Y-98243570D01*
X43357720Y-98229232D01*
X43627099Y-98186567D01*
X43627105Y-98186566D01*
X43630355Y-98186051D01*
X43985519Y-98090885D01*
X44201101Y-98008130D01*
X44325714Y-97960296D01*
X44325718Y-97960294D01*
X44328790Y-97959115D01*
X44331718Y-97957623D01*
X44331725Y-97957620D01*
X44486137Y-97878943D01*
X44656407Y-97792186D01*
X44964780Y-97591926D01*
X44967343Y-97589851D01*
X44967352Y-97589844D01*
X45247956Y-97362615D01*
X45250531Y-97360530D01*
X45510530Y-97100531D01*
X45710114Y-96854065D01*
X45739844Y-96817352D01*
X45739851Y-96817343D01*
X45741926Y-96814780D01*
X45942186Y-96506407D01*
X46109115Y-96178790D01*
X46240885Y-95835519D01*
X46336051Y-95480355D01*
X46393570Y-95117189D01*
X46412814Y-94750000D01*
X67187186Y-94750000D01*
X67206430Y-95117189D01*
X67263949Y-95480355D01*
X67359115Y-95835519D01*
X67490885Y-96178790D01*
X67657814Y-96506407D01*
X67858074Y-96814780D01*
X67860149Y-96817343D01*
X67860156Y-96817352D01*
X67889886Y-96854065D01*
X68089470Y-97100531D01*
X68349469Y-97360530D01*
X68352044Y-97362615D01*
X68632648Y-97589844D01*
X68632657Y-97589851D01*
X68635220Y-97591926D01*
X68943593Y-97792186D01*
X69113863Y-97878943D01*
X69268275Y-97957620D01*
X69268282Y-97957623D01*
X69271210Y-97959115D01*
X69274282Y-97960294D01*
X69274286Y-97960296D01*
X69398899Y-98008130D01*
X69614481Y-98090885D01*
X69969645Y-98186051D01*
X69972895Y-98186566D01*
X69972901Y-98186567D01*
X70242280Y-98229232D01*
X70332811Y-98243570D01*
X70336096Y-98243742D01*
X70336104Y-98243743D01*
X70696699Y-98262641D01*
X70700000Y-98262814D01*
X70703301Y-98262641D01*
X71063896Y-98243743D01*
X71063904Y-98243742D01*
X71067189Y-98243570D01*
X71157720Y-98229232D01*
X71427099Y-98186567D01*
X71427105Y-98186566D01*
X71430355Y-98186051D01*
X71785519Y-98090885D01*
X72001101Y-98008130D01*
X72125714Y-97960296D01*
X72125718Y-97960294D01*
X72128790Y-97959115D01*
X72131718Y-97957623D01*
X72131725Y-97957620D01*
X72286137Y-97878943D01*
X72456407Y-97792186D01*
X72764780Y-97591926D01*
X72767343Y-97589851D01*
X72767352Y-97589844D01*
X73047956Y-97362615D01*
X73050531Y-97360530D01*
X73310530Y-97100531D01*
X73510114Y-96854065D01*
X73539844Y-96817352D01*
X73539851Y-96817343D01*
X73541926Y-96814780D01*
X73742186Y-96506407D01*
X73909115Y-96178790D01*
X74040885Y-95835519D01*
X74136051Y-95480355D01*
X74193570Y-95117189D01*
X74212814Y-94750000D01*
X74193570Y-94382811D01*
X74136051Y-94019645D01*
X74040885Y-93664481D01*
X73909115Y-93321210D01*
X73742186Y-92993593D01*
X73541926Y-92685220D01*
X73539851Y-92682657D01*
X73539844Y-92682648D01*
X73312615Y-92402044D01*
X73310530Y-92399469D01*
X73050531Y-92139470D01*
X72992140Y-92092186D01*
X72767352Y-91910156D01*
X72767343Y-91910149D01*
X72764780Y-91908074D01*
X72456407Y-91707814D01*
X72286137Y-91621057D01*
X72131725Y-91542380D01*
X72131718Y-91542377D01*
X72128790Y-91540885D01*
X72125718Y-91539706D01*
X72125714Y-91539704D01*
X72001101Y-91491870D01*
X71785519Y-91409115D01*
X71430355Y-91313949D01*
X71427105Y-91313434D01*
X71427099Y-91313433D01*
X71157720Y-91270768D01*
X71067189Y-91256430D01*
X71063904Y-91256258D01*
X71063896Y-91256257D01*
X70703301Y-91237359D01*
X70700000Y-91237186D01*
X70696699Y-91237359D01*
X70336104Y-91256257D01*
X70336096Y-91256258D01*
X70332811Y-91256430D01*
X70242280Y-91270768D01*
X69972901Y-91313433D01*
X69972895Y-91313434D01*
X69969645Y-91313949D01*
X69614481Y-91409115D01*
X69398899Y-91491870D01*
X69274286Y-91539704D01*
X69274282Y-91539706D01*
X69271210Y-91540885D01*
X69268282Y-91542377D01*
X69268275Y-91542380D01*
X69113863Y-91621057D01*
X68943593Y-91707814D01*
X68635220Y-91908074D01*
X68632657Y-91910149D01*
X68632648Y-91910156D01*
X68407860Y-92092186D01*
X68349469Y-92139470D01*
X68089470Y-92399469D01*
X68087385Y-92402044D01*
X67860156Y-92682648D01*
X67860149Y-92682657D01*
X67858074Y-92685220D01*
X67657814Y-92993593D01*
X67490885Y-93321210D01*
X67359115Y-93664481D01*
X67263949Y-94019645D01*
X67206430Y-94382811D01*
X67187186Y-94750000D01*
X46412814Y-94750000D01*
X46393570Y-94382811D01*
X46336051Y-94019645D01*
X46240885Y-93664481D01*
X46109115Y-93321210D01*
X45942186Y-92993593D01*
X45741926Y-92685220D01*
X45739851Y-92682657D01*
X45739844Y-92682648D01*
X45512615Y-92402044D01*
X45510530Y-92399469D01*
X45250531Y-92139470D01*
X45192140Y-92092186D01*
X44967352Y-91910156D01*
X44967343Y-91910149D01*
X44964780Y-91908074D01*
X44656407Y-91707814D01*
X44486137Y-91621057D01*
X44331725Y-91542380D01*
X44331718Y-91542377D01*
X44328790Y-91540885D01*
X44325718Y-91539706D01*
X44325714Y-91539704D01*
X44201101Y-91491870D01*
X43985519Y-91409115D01*
X43630355Y-91313949D01*
X43627105Y-91313434D01*
X43627099Y-91313433D01*
X43357720Y-91270768D01*
X43267189Y-91256430D01*
X43263904Y-91256258D01*
X43263896Y-91256257D01*
X42903301Y-91237359D01*
X42900000Y-91237186D01*
X42896699Y-91237359D01*
X42536104Y-91256257D01*
X42536096Y-91256258D01*
X42532811Y-91256430D01*
X42442280Y-91270768D01*
X42172901Y-91313433D01*
X42172895Y-91313434D01*
X42169645Y-91313949D01*
X41814481Y-91409115D01*
X41598899Y-91491870D01*
X41474286Y-91539704D01*
X41474282Y-91539706D01*
X41471210Y-91540885D01*
X41468282Y-91542377D01*
X41468275Y-91542380D01*
X41313863Y-91621057D01*
X41143593Y-91707814D01*
X40835220Y-91908074D01*
X40832657Y-91910149D01*
X40832648Y-91910156D01*
X40607860Y-92092186D01*
X40549469Y-92139470D01*
X40289470Y-92399469D01*
X40287385Y-92402044D01*
X40060156Y-92682648D01*
X40060149Y-92682657D01*
X40058074Y-92685220D01*
X39857814Y-92993593D01*
X39690885Y-93321210D01*
X39559115Y-93664481D01*
X39463949Y-94019645D01*
X39406430Y-94382811D01*
X39387186Y-94750000D01*
X27083000Y-94750000D01*
X27083000Y-60693972D01*
X38887557Y-60693972D01*
X38901240Y-61085785D01*
X38953091Y-61474393D01*
X38953791Y-61477377D01*
X38953792Y-61477383D01*
X38992400Y-61641988D01*
X39042616Y-61856087D01*
X39168961Y-62227223D01*
X39170235Y-62230031D01*
X39329643Y-62581444D01*
X39329647Y-62581452D01*
X39330920Y-62584258D01*
X39526946Y-62923785D01*
X39755168Y-63242563D01*
X39757195Y-63244878D01*
X39757197Y-63244881D01*
X40011377Y-63535228D01*
X40013409Y-63537549D01*
X40299202Y-63805927D01*
X40609821Y-64045135D01*
X40612424Y-64046762D01*
X40612429Y-64046765D01*
X40732130Y-64121562D01*
X40942300Y-64252891D01*
X41293466Y-64427212D01*
X41659966Y-64566432D01*
X42038303Y-64669224D01*
X42336160Y-64719603D01*
X42421843Y-64734095D01*
X42421846Y-64734095D01*
X42424865Y-64734606D01*
X42578918Y-64745378D01*
X42812896Y-64761740D01*
X42812904Y-64761740D01*
X42815962Y-64761954D01*
X43068875Y-64754889D01*
X43204787Y-64751093D01*
X43204790Y-64751093D01*
X43207861Y-64751007D01*
X43210914Y-64750621D01*
X43210918Y-64750621D01*
X43351291Y-64732888D01*
X43596821Y-64701870D01*
X43599825Y-64701188D01*
X43599828Y-64701187D01*
X43976135Y-64615692D01*
X43976141Y-64615690D01*
X43979131Y-64615011D01*
X44125166Y-64566432D01*
X44348215Y-64492234D01*
X44348221Y-64492232D01*
X44351139Y-64491261D01*
X44353949Y-64490010D01*
X44706497Y-64333046D01*
X44706503Y-64333043D01*
X44709297Y-64331799D01*
X44711966Y-64330283D01*
X45047516Y-64139664D01*
X45047521Y-64139661D01*
X45050184Y-64138148D01*
X45370547Y-63912156D01*
X45667329Y-63655981D01*
X45669450Y-63653754D01*
X45669456Y-63653748D01*
X45935568Y-63374302D01*
X45935572Y-63374297D01*
X45937695Y-63372068D01*
X45939588Y-63369645D01*
X45939595Y-63369637D01*
X46177168Y-63065558D01*
X46177171Y-63065554D01*
X46179067Y-63063127D01*
X46389139Y-62732107D01*
X46565906Y-62382167D01*
X46707682Y-62016647D01*
X46813112Y-61639037D01*
X46881192Y-61252941D01*
X46911269Y-60862045D01*
X46912834Y-60750000D01*
X46910094Y-60693972D01*
X66687557Y-60693972D01*
X66701240Y-61085785D01*
X66753091Y-61474393D01*
X66753791Y-61477377D01*
X66753792Y-61477383D01*
X66792400Y-61641988D01*
X66842616Y-61856087D01*
X66968961Y-62227223D01*
X66970235Y-62230031D01*
X67129643Y-62581444D01*
X67129647Y-62581452D01*
X67130920Y-62584258D01*
X67326946Y-62923785D01*
X67555168Y-63242563D01*
X67557195Y-63244878D01*
X67557197Y-63244881D01*
X67811377Y-63535228D01*
X67813409Y-63537549D01*
X68099202Y-63805927D01*
X68409821Y-64045135D01*
X68412424Y-64046762D01*
X68412429Y-64046765D01*
X68532130Y-64121562D01*
X68742300Y-64252891D01*
X69093466Y-64427212D01*
X69459966Y-64566432D01*
X69838303Y-64669224D01*
X70136160Y-64719603D01*
X70221843Y-64734095D01*
X70221846Y-64734095D01*
X70224865Y-64734606D01*
X70378918Y-64745378D01*
X70612896Y-64761740D01*
X70612904Y-64761740D01*
X70615962Y-64761954D01*
X70868875Y-64754889D01*
X71004787Y-64751093D01*
X71004790Y-64751093D01*
X71007861Y-64751007D01*
X71010914Y-64750621D01*
X71010918Y-64750621D01*
X71151291Y-64732888D01*
X71396821Y-64701870D01*
X71399825Y-64701188D01*
X71399828Y-64701187D01*
X71776135Y-64615692D01*
X71776141Y-64615690D01*
X71779131Y-64615011D01*
X71925166Y-64566432D01*
X72148215Y-64492234D01*
X72148221Y-64492232D01*
X72151139Y-64491261D01*
X72153949Y-64490010D01*
X72506497Y-64333046D01*
X72506503Y-64333043D01*
X72509297Y-64331799D01*
X72511966Y-64330283D01*
X72847516Y-64139664D01*
X72847521Y-64139661D01*
X72850184Y-64138148D01*
X73170547Y-63912156D01*
X73467329Y-63655981D01*
X73469450Y-63653754D01*
X73469456Y-63653748D01*
X73735568Y-63374302D01*
X73735572Y-63374297D01*
X73737695Y-63372068D01*
X73739588Y-63369645D01*
X73739595Y-63369637D01*
X73977168Y-63065558D01*
X73977171Y-63065554D01*
X73979067Y-63063127D01*
X74189139Y-62732107D01*
X74365906Y-62382167D01*
X74507682Y-62016647D01*
X74613112Y-61639037D01*
X74681192Y-61252941D01*
X74711269Y-60862045D01*
X74712834Y-60750000D01*
X74708238Y-60656019D01*
X74702508Y-60538864D01*
X74693682Y-60358416D01*
X74636410Y-59970570D01*
X74541564Y-59590163D01*
X74522506Y-59536640D01*
X74411082Y-59223727D01*
X74410050Y-59220828D01*
X74243122Y-58866089D01*
X74215393Y-58819572D01*
X74043955Y-58531983D01*
X74042375Y-58529332D01*
X73809724Y-58213771D01*
X73807673Y-58211493D01*
X73807668Y-58211487D01*
X73549451Y-57924709D01*
X73547390Y-57922420D01*
X73257877Y-57658058D01*
X72943948Y-57423210D01*
X72941313Y-57421614D01*
X72611235Y-57221711D01*
X72611232Y-57221709D01*
X72608601Y-57220116D01*
X72605831Y-57218789D01*
X72605822Y-57218784D01*
X72257808Y-57052044D01*
X72257806Y-57052043D01*
X72255036Y-57050716D01*
X72252147Y-57049664D01*
X72252141Y-57049662D01*
X71889526Y-56917682D01*
X71889523Y-56917681D01*
X71886627Y-56916627D01*
X71610598Y-56845754D01*
X71509876Y-56819893D01*
X71509873Y-56819892D01*
X71506892Y-56819127D01*
X71119455Y-56759149D01*
X71116398Y-56758978D01*
X71116397Y-56758978D01*
X71086332Y-56757297D01*
X70728015Y-56737264D01*
X70724936Y-56737393D01*
X70724933Y-56737393D01*
X70469423Y-56748102D01*
X70336307Y-56753681D01*
X70333263Y-56754109D01*
X70333261Y-56754109D01*
X70122350Y-56783751D01*
X69948070Y-56808244D01*
X69567011Y-56900432D01*
X69196766Y-57029365D01*
X69193968Y-57030658D01*
X68843667Y-57192519D01*
X68843657Y-57192524D01*
X68840870Y-57193812D01*
X68502720Y-57392204D01*
X68462241Y-57421614D01*
X68188024Y-57620843D01*
X68188018Y-57620848D01*
X68185543Y-57622646D01*
X68183257Y-57624675D01*
X68183254Y-57624678D01*
X68143318Y-57660135D01*
X67892367Y-57882940D01*
X67890288Y-57885185D01*
X67890281Y-57885192D01*
X67628077Y-58168347D01*
X67625991Y-58170600D01*
X67388957Y-58482881D01*
X67387346Y-58485499D01*
X67387343Y-58485504D01*
X67286242Y-58649842D01*
X67183527Y-58816802D01*
X67011662Y-59169177D01*
X66875004Y-59536640D01*
X66774856Y-59915685D01*
X66712174Y-60302694D01*
X66711981Y-60305767D01*
X66711980Y-60305773D01*
X66708860Y-60355365D01*
X66689945Y-60656019D01*
X66687557Y-60693972D01*
X46910094Y-60693972D01*
X46908238Y-60656019D01*
X46902508Y-60538864D01*
X46893682Y-60358416D01*
X46836410Y-59970570D01*
X46741564Y-59590163D01*
X46722506Y-59536640D01*
X46611082Y-59223727D01*
X46610050Y-59220828D01*
X46443122Y-58866089D01*
X46415393Y-58819572D01*
X46243955Y-58531983D01*
X46242375Y-58529332D01*
X46009724Y-58213771D01*
X46007673Y-58211493D01*
X46007668Y-58211487D01*
X45749451Y-57924709D01*
X45747390Y-57922420D01*
X45457877Y-57658058D01*
X45143948Y-57423210D01*
X45141313Y-57421614D01*
X44811235Y-57221711D01*
X44811232Y-57221709D01*
X44808601Y-57220116D01*
X44805831Y-57218789D01*
X44805822Y-57218784D01*
X44457808Y-57052044D01*
X44457806Y-57052043D01*
X44455036Y-57050716D01*
X44452147Y-57049664D01*
X44452141Y-57049662D01*
X44089526Y-56917682D01*
X44089523Y-56917681D01*
X44086627Y-56916627D01*
X43810598Y-56845754D01*
X43709876Y-56819893D01*
X43709873Y-56819892D01*
X43706892Y-56819127D01*
X43319455Y-56759149D01*
X43316398Y-56758978D01*
X43316397Y-56758978D01*
X43286332Y-56757297D01*
X42928015Y-56737264D01*
X42924936Y-56737393D01*
X42924933Y-56737393D01*
X42669423Y-56748102D01*
X42536307Y-56753681D01*
X42533263Y-56754109D01*
X42533261Y-56754109D01*
X42322350Y-56783751D01*
X42148070Y-56808244D01*
X41767011Y-56900432D01*
X41396766Y-57029365D01*
X41393968Y-57030658D01*
X41043667Y-57192519D01*
X41043657Y-57192524D01*
X41040870Y-57193812D01*
X40702720Y-57392204D01*
X40662241Y-57421614D01*
X40388024Y-57620843D01*
X40388018Y-57620848D01*
X40385543Y-57622646D01*
X40383257Y-57624675D01*
X40383254Y-57624678D01*
X40343318Y-57660135D01*
X40092367Y-57882940D01*
X40090288Y-57885185D01*
X40090281Y-57885192D01*
X39828077Y-58168347D01*
X39825991Y-58170600D01*
X39588957Y-58482881D01*
X39587346Y-58485499D01*
X39587343Y-58485504D01*
X39486242Y-58649842D01*
X39383527Y-58816802D01*
X39211662Y-59169177D01*
X39075004Y-59536640D01*
X38974856Y-59915685D01*
X38912174Y-60302694D01*
X38911981Y-60305767D01*
X38911980Y-60305773D01*
X38908860Y-60355365D01*
X38889945Y-60656019D01*
X38887557Y-60693972D01*
X27083000Y-60693972D01*
X27083000Y-24500000D01*
X31887477Y-24500000D01*
X31887747Y-24504119D01*
X31905281Y-24771625D01*
X31905552Y-24775765D01*
X31959466Y-25046812D01*
X31960791Y-25050715D01*
X31960792Y-25050719D01*
X32046926Y-25304461D01*
X32048298Y-25308502D01*
X32050121Y-25312198D01*
X32050124Y-25312206D01*
X32107525Y-25428603D01*
X32170528Y-25556359D01*
X32324063Y-25786141D01*
X32326777Y-25789235D01*
X32326781Y-25789241D01*
X32503423Y-25990661D01*
X32506278Y-25993917D01*
X32509367Y-25996626D01*
X32710954Y-26173414D01*
X32710960Y-26173418D01*
X32714054Y-26176132D01*
X32943836Y-26329667D01*
X32947539Y-26331493D01*
X33187989Y-26450071D01*
X33187997Y-26450074D01*
X33191693Y-26451897D01*
X33195608Y-26453226D01*
X33449476Y-26539403D01*
X33449480Y-26539404D01*
X33453383Y-26540729D01*
X33655512Y-26580935D01*
X33720387Y-26593839D01*
X33720390Y-26593839D01*
X33724430Y-26594643D01*
X33728541Y-26594912D01*
X33728545Y-26594913D01*
X33817355Y-26600734D01*
X33967956Y-26610605D01*
X33980598Y-26612079D01*
X33987656Y-26613266D01*
X33994011Y-26613344D01*
X33995336Y-26613360D01*
X33995340Y-26613360D01*
X34000195Y-26613419D01*
X34027783Y-26609468D01*
X34045646Y-26608195D01*
X35548153Y-26608195D01*
X35569057Y-26609941D01*
X35587656Y-26613070D01*
X35593712Y-26613144D01*
X35595325Y-26613164D01*
X35595330Y-26613164D01*
X35600195Y-26613223D01*
X35605012Y-26612533D01*
X35605610Y-26612494D01*
X35614059Y-26611613D01*
X35871832Y-26594718D01*
X35871836Y-26594717D01*
X35875947Y-26594448D01*
X35879987Y-26593644D01*
X35879990Y-26593644D01*
X36142936Y-26541341D01*
X36142942Y-26541339D01*
X36146981Y-26540536D01*
X36150885Y-26539211D01*
X36150888Y-26539210D01*
X36404754Y-26453034D01*
X36404755Y-26453033D01*
X36408660Y-26451708D01*
X36526040Y-26393823D01*
X36652801Y-26331312D01*
X36652806Y-26331309D01*
X36656505Y-26329485D01*
X36710348Y-26293508D01*
X36882846Y-26178249D01*
X36882851Y-26178245D01*
X36886277Y-26175956D01*
X36889371Y-26173242D01*
X36889377Y-26173238D01*
X37090954Y-25996459D01*
X37094043Y-25993750D01*
X37273393Y-25789241D01*
X37273531Y-25789084D01*
X37273535Y-25789078D01*
X37276249Y-25785984D01*
X37429778Y-25556212D01*
X37552001Y-25308367D01*
X37553327Y-25304461D01*
X37639503Y-25050595D01*
X37639504Y-25050592D01*
X37640829Y-25046688D01*
X37652753Y-24986746D01*
X37693937Y-24779697D01*
X37693937Y-24779694D01*
X37694741Y-24775654D01*
X37712809Y-24500000D01*
X75887477Y-24500000D01*
X75887747Y-24504119D01*
X75905275Y-24771539D01*
X75905550Y-24775740D01*
X75906354Y-24779780D01*
X75906354Y-24779783D01*
X75958640Y-25042643D01*
X75959459Y-25046761D01*
X75960784Y-25050665D01*
X75960785Y-25050668D01*
X75997232Y-25158037D01*
X76048283Y-25308428D01*
X76050107Y-25312126D01*
X76168650Y-25552508D01*
X76170501Y-25556262D01*
X76324023Y-25786023D01*
X76326737Y-25789117D01*
X76326741Y-25789123D01*
X76503487Y-25990661D01*
X76506221Y-25993779D01*
X76509310Y-25996488D01*
X76710877Y-26173259D01*
X76710883Y-26173263D01*
X76713977Y-26175977D01*
X76717403Y-26178266D01*
X76717408Y-26178270D01*
X76888968Y-26292902D01*
X76943739Y-26329499D01*
X76947438Y-26331323D01*
X76947443Y-26331326D01*
X76947782Y-26331493D01*
X77191572Y-26451717D01*
X77195477Y-26453042D01*
X77195478Y-26453043D01*
X77449332Y-26539215D01*
X77449335Y-26539216D01*
X77453239Y-26540541D01*
X77457278Y-26541344D01*
X77457284Y-26541346D01*
X77720217Y-26593646D01*
X77720220Y-26593646D01*
X77724260Y-26594450D01*
X77728371Y-26594719D01*
X77728375Y-26594720D01*
X77817277Y-26600547D01*
X77967761Y-26610410D01*
X77980403Y-26611884D01*
X77987461Y-26613071D01*
X77993816Y-26613149D01*
X77995141Y-26613165D01*
X77995145Y-26613165D01*
X78000000Y-26613224D01*
X78027588Y-26609273D01*
X78045451Y-26608000D01*
X79546793Y-26608000D01*
X79567697Y-26609746D01*
X79587461Y-26613071D01*
X79593517Y-26613145D01*
X79595130Y-26613165D01*
X79595135Y-26613165D01*
X79600000Y-26613224D01*
X79604817Y-26612534D01*
X79605415Y-26612495D01*
X79613864Y-26611614D01*
X79871625Y-26594720D01*
X79871629Y-26594719D01*
X79875740Y-26594450D01*
X79879780Y-26593646D01*
X79879783Y-26593646D01*
X80142716Y-26541346D01*
X80142722Y-26541344D01*
X80146761Y-26540541D01*
X80150665Y-26539216D01*
X80150668Y-26539215D01*
X80404522Y-26453043D01*
X80404523Y-26453042D01*
X80408428Y-26451717D01*
X80652219Y-26331493D01*
X80652558Y-26331326D01*
X80652563Y-26331323D01*
X80656262Y-26329499D01*
X80709044Y-26294231D01*
X80882592Y-26178270D01*
X80882597Y-26178266D01*
X80886023Y-26175977D01*
X80889117Y-26173263D01*
X80889123Y-26173259D01*
X81090690Y-25996488D01*
X81093779Y-25993779D01*
X81096513Y-25990661D01*
X81273259Y-25789123D01*
X81273263Y-25789117D01*
X81275977Y-25786023D01*
X81429499Y-25556262D01*
X81431351Y-25552508D01*
X81549893Y-25312126D01*
X81551717Y-25308428D01*
X81602768Y-25158037D01*
X81639215Y-25050668D01*
X81639216Y-25050665D01*
X81640541Y-25046761D01*
X81641361Y-25042643D01*
X81693646Y-24779783D01*
X81693646Y-24779780D01*
X81694450Y-24775740D01*
X81694726Y-24771539D01*
X81712253Y-24504119D01*
X81712523Y-24500000D01*
X81694450Y-24224260D01*
X81689845Y-24201107D01*
X81641346Y-23957284D01*
X81641344Y-23957278D01*
X81640541Y-23953239D01*
X81639198Y-23949281D01*
X81553043Y-23695478D01*
X81553042Y-23695477D01*
X81551717Y-23691572D01*
X81448239Y-23481740D01*
X81431326Y-23447443D01*
X81431323Y-23447438D01*
X81429499Y-23443739D01*
X81275977Y-23213977D01*
X81273263Y-23210883D01*
X81273259Y-23210877D01*
X81096488Y-23009310D01*
X81093779Y-23006221D01*
X81090500Y-23003345D01*
X80889123Y-22826741D01*
X80889117Y-22826737D01*
X80886023Y-22824023D01*
X80882597Y-22821734D01*
X80882592Y-22821730D01*
X80659695Y-22672795D01*
X80656262Y-22670501D01*
X80652563Y-22668677D01*
X80652558Y-22668674D01*
X80525693Y-22606111D01*
X80408428Y-22548283D01*
X80403971Y-22546770D01*
X80150668Y-22460785D01*
X80150665Y-22460784D01*
X80146761Y-22459459D01*
X80142722Y-22458656D01*
X80142716Y-22458654D01*
X79879783Y-22406354D01*
X79879780Y-22406354D01*
X79875740Y-22405550D01*
X79871629Y-22405281D01*
X79871625Y-22405280D01*
X79782723Y-22399453D01*
X79632239Y-22389590D01*
X79619597Y-22388116D01*
X79612539Y-22386929D01*
X79606184Y-22386851D01*
X79604859Y-22386835D01*
X79604855Y-22386835D01*
X79600000Y-22386776D01*
X79572412Y-22390727D01*
X79554549Y-22392000D01*
X78053207Y-22392000D01*
X78032303Y-22390254D01*
X78020040Y-22388191D01*
X78012539Y-22386929D01*
X78006483Y-22386855D01*
X78004870Y-22386835D01*
X78004865Y-22386835D01*
X78000000Y-22386776D01*
X77995183Y-22387466D01*
X77994585Y-22387505D01*
X77986136Y-22388386D01*
X77728375Y-22405280D01*
X77728371Y-22405281D01*
X77724260Y-22405550D01*
X77720220Y-22406354D01*
X77720217Y-22406354D01*
X77457284Y-22458654D01*
X77457278Y-22458656D01*
X77453239Y-22459459D01*
X77449335Y-22460784D01*
X77449332Y-22460785D01*
X77196029Y-22546770D01*
X77191572Y-22548283D01*
X77074440Y-22606046D01*
X76947443Y-22668674D01*
X76947438Y-22668677D01*
X76943739Y-22670501D01*
X76940306Y-22672795D01*
X76717408Y-22821730D01*
X76717403Y-22821734D01*
X76713977Y-22824023D01*
X76710883Y-22826737D01*
X76710877Y-22826741D01*
X76509500Y-23003345D01*
X76506221Y-23006221D01*
X76503512Y-23009310D01*
X76326741Y-23210877D01*
X76326737Y-23210883D01*
X76324023Y-23213977D01*
X76170501Y-23443739D01*
X76168677Y-23447438D01*
X76168674Y-23447443D01*
X76151761Y-23481740D01*
X76048283Y-23691572D01*
X76046958Y-23695477D01*
X76046957Y-23695478D01*
X75960803Y-23949281D01*
X75959459Y-23953239D01*
X75958656Y-23957278D01*
X75958654Y-23957284D01*
X75910155Y-24201107D01*
X75905550Y-24224260D01*
X75887477Y-24500000D01*
X37712809Y-24500000D01*
X37712815Y-24499902D01*
X37695018Y-24228375D01*
X37695011Y-24228265D01*
X37695010Y-24228261D01*
X37694741Y-24224150D01*
X37690168Y-24201160D01*
X37641634Y-23957161D01*
X37641632Y-23957155D01*
X37640829Y-23953116D01*
X37552001Y-23691437D01*
X37492797Y-23571382D01*
X37431605Y-23447296D01*
X37431602Y-23447291D01*
X37429778Y-23443592D01*
X37393801Y-23389749D01*
X37278542Y-23217251D01*
X37278538Y-23217246D01*
X37276249Y-23213820D01*
X37273535Y-23210726D01*
X37273531Y-23210720D01*
X37096752Y-23009143D01*
X37094043Y-23006054D01*
X37090954Y-23003345D01*
X36889377Y-22826566D01*
X36889371Y-22826562D01*
X36886277Y-22823848D01*
X36882851Y-22821559D01*
X36882846Y-22821555D01*
X36710348Y-22706296D01*
X36656505Y-22670319D01*
X36652806Y-22668495D01*
X36652801Y-22668492D01*
X36526040Y-22605981D01*
X36408660Y-22548096D01*
X36404754Y-22546770D01*
X36150888Y-22460594D01*
X36150885Y-22460593D01*
X36146981Y-22459268D01*
X36142942Y-22458465D01*
X36142936Y-22458463D01*
X35879990Y-22406160D01*
X35879987Y-22406160D01*
X35875947Y-22405356D01*
X35871836Y-22405087D01*
X35871832Y-22405086D01*
X35782985Y-22399263D01*
X35632434Y-22389395D01*
X35619792Y-22387921D01*
X35612734Y-22386734D01*
X35606379Y-22386656D01*
X35605054Y-22386640D01*
X35605050Y-22386640D01*
X35600195Y-22386581D01*
X35575910Y-22390059D01*
X35572607Y-22390532D01*
X35554744Y-22391805D01*
X34053402Y-22391805D01*
X34032498Y-22390059D01*
X34021394Y-22388191D01*
X34012734Y-22386734D01*
X34006678Y-22386660D01*
X34005065Y-22386640D01*
X34005060Y-22386640D01*
X34000195Y-22386581D01*
X33995378Y-22387271D01*
X33994780Y-22387310D01*
X33986331Y-22388191D01*
X33728545Y-22405087D01*
X33728541Y-22405088D01*
X33724430Y-22405357D01*
X33720390Y-22406161D01*
X33720387Y-22406161D01*
X33655512Y-22419065D01*
X33453383Y-22459271D01*
X33449480Y-22460596D01*
X33449476Y-22460597D01*
X33195620Y-22546770D01*
X33191693Y-22548103D01*
X33187997Y-22549926D01*
X33187989Y-22549929D01*
X32987832Y-22648636D01*
X32943836Y-22670333D01*
X32714054Y-22823868D01*
X32710960Y-22826582D01*
X32710954Y-22826586D01*
X32509400Y-23003345D01*
X32506278Y-23006083D01*
X32503569Y-23009172D01*
X32326781Y-23210759D01*
X32326777Y-23210765D01*
X32324063Y-23213859D01*
X32321692Y-23217408D01*
X32172855Y-23440159D01*
X32170528Y-23443641D01*
X32168702Y-23447344D01*
X32050124Y-23687794D01*
X32050121Y-23687802D01*
X32048298Y-23691498D01*
X32046969Y-23695413D01*
X31960817Y-23949209D01*
X31959466Y-23953188D01*
X31905552Y-24224235D01*
X31905283Y-24228346D01*
X31905282Y-24228350D01*
X31894088Y-24399136D01*
X31887477Y-24500000D01*
X27083000Y-24500000D01*
X27083000Y-22209000D01*
X27103002Y-22140879D01*
X27156658Y-22094386D01*
X27209000Y-22083000D01*
X86391000Y-22083000D01*
X86459121Y-22103002D01*
G37*
%TD.AperFunction*%
M02*
