%TF.GenerationSoftware,KiCad,Pcbnew,(6.0.1)*%
%TF.CreationDate,2022-09-11T09:08:46+02:00*%
%TF.ProjectId,front pannel,66726f6e-7420-4706-916e-6e656c2e6b69,rev?*%
%TF.SameCoordinates,Original*%
%TF.FileFunction,Legend,Bot*%
%TF.FilePolarity,Positive*%
%FSLAX46Y46*%
G04 Gerber Fmt 4.6, Leading zero omitted, Abs format (unit mm)*
G04 Created by KiCad (PCBNEW (6.0.1)) date 2022-09-11 09:08:46*
%MOMM*%
%LPD*%
G01*
G04 APERTURE LIST*
%TA.AperFunction,Profile*%
%ADD10C,0.100000*%
%TD*%
%ADD11C,0.150000*%
G04 APERTURE END LIST*
D10*
X73700000Y-112750000D02*
G75*
G03*
X73700000Y-112750000I-3000000J0D01*
G01*
X34000000Y-145374805D02*
X35600000Y-145374805D01*
X79600000Y-22900000D02*
X78000000Y-22900000D01*
X35600000Y-148574999D02*
G75*
G03*
X35600000Y-145374805I0J1600097D01*
G01*
X34000000Y-145374805D02*
G75*
G03*
X34000000Y-148575195I0J-1600195D01*
G01*
X87100000Y-150000000D02*
X26500000Y-150000000D01*
X45900000Y-94750000D02*
G75*
G03*
X45900000Y-94750000I-3000000J0D01*
G01*
X87100000Y-21500000D02*
X87100000Y-150000000D01*
X35600195Y-26099999D02*
G75*
G03*
X35600195Y-22899805I0J1600097D01*
G01*
X78000000Y-145350000D02*
G75*
G03*
X78000000Y-148550000I0J-1600000D01*
G01*
X45900000Y-112750000D02*
G75*
G03*
X45900000Y-112750000I-3000000J0D01*
G01*
X34000195Y-26100195D02*
X35600195Y-26100195D01*
X34000195Y-22899805D02*
G75*
G03*
X34000195Y-26100195I0J-1600195D01*
G01*
X34000000Y-148575195D02*
X35600000Y-148575195D01*
X34000195Y-22899805D02*
X35600195Y-22899805D01*
X73700000Y-94750000D02*
G75*
G03*
X73700000Y-94750000I-3000000J0D01*
G01*
X46400000Y-60750000D02*
G75*
G03*
X46400000Y-60750000I-3500000J0D01*
G01*
X26500000Y-150000000D02*
X26500000Y-21500000D01*
X79600000Y-26100000D02*
G75*
G03*
X79600000Y-22900000I0J1600000D01*
G01*
X45900000Y-130750000D02*
G75*
G03*
X45900000Y-130750000I-3000000J0D01*
G01*
X79600000Y-145350000D02*
X78000000Y-145350000D01*
X26500000Y-21500000D02*
X87100000Y-21500000D01*
X78000000Y-22900000D02*
G75*
G03*
X78000000Y-26100000I0J-1600000D01*
G01*
X79600000Y-26100000D02*
X78000000Y-26100000D01*
X73700000Y-130750000D02*
G75*
G03*
X73700000Y-130750000I-3000000J0D01*
G01*
X79600000Y-148550000D02*
G75*
G03*
X79600000Y-145350000I0J1600000D01*
G01*
X74200000Y-60750000D02*
G75*
G03*
X74200000Y-60750000I-3500000J0D01*
G01*
X79600000Y-148550000D02*
X78000000Y-148550000D01*
D11*
X39814285Y-31347380D02*
X39814285Y-30347380D01*
X39576190Y-30347380D01*
X39433333Y-30395000D01*
X39338095Y-30490238D01*
X39290476Y-30585476D01*
X39242857Y-30775952D01*
X39242857Y-30918809D01*
X39290476Y-31109285D01*
X39338095Y-31204523D01*
X39433333Y-31299761D01*
X39576190Y-31347380D01*
X39814285Y-31347380D01*
X38814285Y-30823571D02*
X38480952Y-30823571D01*
X38338095Y-31347380D02*
X38814285Y-31347380D01*
X38814285Y-30347380D01*
X38338095Y-30347380D01*
X37957142Y-31299761D02*
X37814285Y-31347380D01*
X37576190Y-31347380D01*
X37480952Y-31299761D01*
X37433333Y-31252142D01*
X37385714Y-31156904D01*
X37385714Y-31061666D01*
X37433333Y-30966428D01*
X37480952Y-30918809D01*
X37576190Y-30871190D01*
X37766666Y-30823571D01*
X37861904Y-30775952D01*
X37909523Y-30728333D01*
X37957142Y-30633095D01*
X37957142Y-30537857D01*
X37909523Y-30442619D01*
X37861904Y-30395000D01*
X37766666Y-30347380D01*
X37528571Y-30347380D01*
X37385714Y-30395000D01*
X36957142Y-31347380D02*
X36957142Y-30347380D01*
X35957142Y-30395000D02*
X36052380Y-30347380D01*
X36195238Y-30347380D01*
X36338095Y-30395000D01*
X36433333Y-30490238D01*
X36480952Y-30585476D01*
X36528571Y-30775952D01*
X36528571Y-30918809D01*
X36480952Y-31109285D01*
X36433333Y-31204523D01*
X36338095Y-31299761D01*
X36195238Y-31347380D01*
X36100000Y-31347380D01*
X35957142Y-31299761D01*
X35909523Y-31252142D01*
X35909523Y-30918809D01*
X36100000Y-30918809D01*
X35480952Y-31347380D02*
X35480952Y-30347380D01*
X34909523Y-31347380D01*
X34909523Y-30347380D01*
X34433333Y-30823571D02*
X34100000Y-30823571D01*
X33957142Y-31347380D02*
X34433333Y-31347380D01*
X34433333Y-30347380D01*
X33957142Y-30347380D01*
X33528571Y-31347380D02*
X33528571Y-30347380D01*
X33290476Y-30347380D01*
X33147619Y-30395000D01*
X33052380Y-30490238D01*
X33004761Y-30585476D01*
X32957142Y-30775952D01*
X32957142Y-30918809D01*
X33004761Y-31109285D01*
X33052380Y-31204523D01*
X33147619Y-31299761D01*
X33290476Y-31347380D01*
X33528571Y-31347380D01*
X31433333Y-30823571D02*
X31290476Y-30871190D01*
X31242857Y-30918809D01*
X31195238Y-31014047D01*
X31195238Y-31156904D01*
X31242857Y-31252142D01*
X31290476Y-31299761D01*
X31385714Y-31347380D01*
X31766666Y-31347380D01*
X31766666Y-30347380D01*
X31433333Y-30347380D01*
X31338095Y-30395000D01*
X31290476Y-30442619D01*
X31242857Y-30537857D01*
X31242857Y-30633095D01*
X31290476Y-30728333D01*
X31338095Y-30775952D01*
X31433333Y-30823571D01*
X31766666Y-30823571D01*
X30576190Y-30871190D02*
X30576190Y-31347380D01*
X30909523Y-30347380D02*
X30576190Y-30871190D01*
X30242857Y-30347380D01*
X40980952Y-31957380D02*
X40980952Y-32671666D01*
X41028571Y-32814523D01*
X41123809Y-32909761D01*
X41266666Y-32957380D01*
X41361904Y-32957380D01*
X40314285Y-31957380D02*
X40123809Y-31957380D01*
X40028571Y-32005000D01*
X39933333Y-32100238D01*
X39885714Y-32290714D01*
X39885714Y-32624047D01*
X39933333Y-32814523D01*
X40028571Y-32909761D01*
X40123809Y-32957380D01*
X40314285Y-32957380D01*
X40409523Y-32909761D01*
X40504761Y-32814523D01*
X40552380Y-32624047D01*
X40552380Y-32290714D01*
X40504761Y-32100238D01*
X40409523Y-32005000D01*
X40314285Y-31957380D01*
X38885714Y-32957380D02*
X39219047Y-32481190D01*
X39457142Y-32957380D02*
X39457142Y-31957380D01*
X39076190Y-31957380D01*
X38980952Y-32005000D01*
X38933333Y-32052619D01*
X38885714Y-32147857D01*
X38885714Y-32290714D01*
X38933333Y-32385952D01*
X38980952Y-32433571D01*
X39076190Y-32481190D01*
X39457142Y-32481190D01*
X37933333Y-32005000D02*
X38028571Y-31957380D01*
X38171428Y-31957380D01*
X38314285Y-32005000D01*
X38409523Y-32100238D01*
X38457142Y-32195476D01*
X38504761Y-32385952D01*
X38504761Y-32528809D01*
X38457142Y-32719285D01*
X38409523Y-32814523D01*
X38314285Y-32909761D01*
X38171428Y-32957380D01*
X38076190Y-32957380D01*
X37933333Y-32909761D01*
X37885714Y-32862142D01*
X37885714Y-32528809D01*
X38076190Y-32528809D01*
X37457142Y-32433571D02*
X37123809Y-32433571D01*
X36980952Y-32957380D02*
X37457142Y-32957380D01*
X37457142Y-31957380D01*
X36980952Y-31957380D01*
X35600000Y-31957380D02*
X35409523Y-31957380D01*
X35314285Y-32005000D01*
X35219047Y-32100238D01*
X35171428Y-32290714D01*
X35171428Y-32624047D01*
X35219047Y-32814523D01*
X35314285Y-32909761D01*
X35409523Y-32957380D01*
X35600000Y-32957380D01*
X35695238Y-32909761D01*
X35790476Y-32814523D01*
X35838095Y-32624047D01*
X35838095Y-32290714D01*
X35790476Y-32100238D01*
X35695238Y-32005000D01*
X35600000Y-31957380D01*
X34171428Y-32957380D02*
X34504761Y-32481190D01*
X34742857Y-32957380D02*
X34742857Y-31957380D01*
X34361904Y-31957380D01*
X34266666Y-32005000D01*
X34219047Y-32052619D01*
X34171428Y-32147857D01*
X34171428Y-32290714D01*
X34219047Y-32385952D01*
X34266666Y-32433571D01*
X34361904Y-32481190D01*
X34742857Y-32481190D01*
X33885714Y-31957380D02*
X33314285Y-31957380D01*
X33600000Y-32957380D02*
X33600000Y-31957380D01*
X32980952Y-32957380D02*
X32980952Y-31957380D01*
X31980952Y-32005000D02*
X32076190Y-31957380D01*
X32219047Y-31957380D01*
X32361904Y-32005000D01*
X32457142Y-32100238D01*
X32504761Y-32195476D01*
X32552380Y-32385952D01*
X32552380Y-32528809D01*
X32504761Y-32719285D01*
X32457142Y-32814523D01*
X32361904Y-32909761D01*
X32219047Y-32957380D01*
X32123809Y-32957380D01*
X31980952Y-32909761D01*
X31933333Y-32862142D01*
X31933333Y-32528809D01*
X32123809Y-32528809D01*
X31314285Y-31957380D02*
X31123809Y-31957380D01*
X31028571Y-32005000D01*
X30933333Y-32100238D01*
X30885714Y-32290714D01*
X30885714Y-32624047D01*
X30933333Y-32814523D01*
X31028571Y-32909761D01*
X31123809Y-32957380D01*
X31314285Y-32957380D01*
X31409523Y-32909761D01*
X31504761Y-32814523D01*
X31552380Y-32624047D01*
X31552380Y-32290714D01*
X31504761Y-32100238D01*
X31409523Y-32005000D01*
X31314285Y-31957380D01*
X30504761Y-32909761D02*
X30361904Y-32957380D01*
X30123809Y-32957380D01*
X30028571Y-32909761D01*
X29980952Y-32862142D01*
X29933333Y-32766904D01*
X29933333Y-32671666D01*
X29980952Y-32576428D01*
X30028571Y-32528809D01*
X30123809Y-32481190D01*
X30314285Y-32433571D01*
X30409523Y-32385952D01*
X30457142Y-32338333D01*
X30504761Y-32243095D01*
X30504761Y-32147857D01*
X30457142Y-32052619D01*
X30409523Y-32005000D01*
X30314285Y-31957380D01*
X30076190Y-31957380D01*
X29933333Y-32005000D01*
X29314285Y-31957380D02*
X29123809Y-31957380D01*
X29028571Y-32005000D01*
X28933333Y-32100238D01*
X28885714Y-32290714D01*
X28885714Y-32624047D01*
X28933333Y-32814523D01*
X29028571Y-32909761D01*
X29123809Y-32957380D01*
X29314285Y-32957380D01*
X29409523Y-32909761D01*
X29504761Y-32814523D01*
X29552380Y-32624047D01*
X29552380Y-32290714D01*
X29504761Y-32100238D01*
X29409523Y-32005000D01*
X29314285Y-31957380D01*
M02*
