%TF.GenerationSoftware,KiCad,Pcbnew,(6.0.1)*%
%TF.CreationDate,2022-09-11T09:08:46+02:00*%
%TF.ProjectId,front pannel,66726f6e-7420-4706-916e-6e656c2e6b69,rev?*%
%TF.SameCoordinates,Original*%
%TF.FileFunction,Paste,Bot*%
%TF.FilePolarity,Positive*%
%FSLAX46Y46*%
G04 Gerber Fmt 4.6, Leading zero omitted, Abs format (unit mm)*
G04 Created by KiCad (PCBNEW (6.0.1)) date 2022-09-11 09:08:46*
%MOMM*%
%LPD*%
G01*
G04 APERTURE LIST*
%TA.AperFunction,Profile*%
%ADD10C,0.100000*%
%TD*%
G04 APERTURE END LIST*
D10*
X73700000Y-112750000D02*
G75*
G03*
X73700000Y-112750000I-3000000J0D01*
G01*
X34000000Y-145374805D02*
X35600000Y-145374805D01*
X79600000Y-22900000D02*
X78000000Y-22900000D01*
X35600000Y-148574999D02*
G75*
G03*
X35600000Y-145374805I0J1600097D01*
G01*
X34000000Y-145374805D02*
G75*
G03*
X34000000Y-148575195I0J-1600195D01*
G01*
X87100000Y-150000000D02*
X26500000Y-150000000D01*
X45900000Y-94750000D02*
G75*
G03*
X45900000Y-94750000I-3000000J0D01*
G01*
X87100000Y-21500000D02*
X87100000Y-150000000D01*
X35600195Y-26099999D02*
G75*
G03*
X35600195Y-22899805I0J1600097D01*
G01*
X78000000Y-145350000D02*
G75*
G03*
X78000000Y-148550000I0J-1600000D01*
G01*
X45900000Y-112750000D02*
G75*
G03*
X45900000Y-112750000I-3000000J0D01*
G01*
X34000195Y-26100195D02*
X35600195Y-26100195D01*
X34000195Y-22899805D02*
G75*
G03*
X34000195Y-26100195I0J-1600195D01*
G01*
X34000000Y-148575195D02*
X35600000Y-148575195D01*
X34000195Y-22899805D02*
X35600195Y-22899805D01*
X73700000Y-94750000D02*
G75*
G03*
X73700000Y-94750000I-3000000J0D01*
G01*
X46400000Y-60750000D02*
G75*
G03*
X46400000Y-60750000I-3500000J0D01*
G01*
X26500000Y-150000000D02*
X26500000Y-21500000D01*
X79600000Y-26100000D02*
G75*
G03*
X79600000Y-22900000I0J1600000D01*
G01*
X45900000Y-130750000D02*
G75*
G03*
X45900000Y-130750000I-3000000J0D01*
G01*
X79600000Y-145350000D02*
X78000000Y-145350000D01*
X26500000Y-21500000D02*
X87100000Y-21500000D01*
X78000000Y-22900000D02*
G75*
G03*
X78000000Y-26100000I0J-1600000D01*
G01*
X79600000Y-26100000D02*
X78000000Y-26100000D01*
X73700000Y-130750000D02*
G75*
G03*
X73700000Y-130750000I-3000000J0D01*
G01*
X79600000Y-148550000D02*
G75*
G03*
X79600000Y-145350000I0J1600000D01*
G01*
X74200000Y-60750000D02*
G75*
G03*
X74200000Y-60750000I-3500000J0D01*
G01*
X79600000Y-148550000D02*
X78000000Y-148550000D01*
M02*
