%TF.GenerationSoftware,KiCad,Pcbnew,(6.0.1)*%
%TF.CreationDate,2022-09-11T09:05:18+02:00*%
%TF.ProjectId,vca,7663612e-6b69-4636-9164-5f7063625858,rev?*%
%TF.SameCoordinates,Original*%
%TF.FileFunction,Soldermask,Top*%
%TF.FilePolarity,Negative*%
%FSLAX46Y46*%
G04 Gerber Fmt 4.6, Leading zero omitted, Abs format (unit mm)*
G04 Created by KiCad (PCBNEW (6.0.1)) date 2022-09-11 09:05:18*
%MOMM*%
%LPD*%
G01*
G04 APERTURE LIST*
G04 Aperture macros list*
%AMRoundRect*
0 Rectangle with rounded corners*
0 $1 Rounding radius*
0 $2 $3 $4 $5 $6 $7 $8 $9 X,Y pos of 4 corners*
0 Add a 4 corners polygon primitive as box body*
4,1,4,$2,$3,$4,$5,$6,$7,$8,$9,$2,$3,0*
0 Add four circle primitives for the rounded corners*
1,1,$1+$1,$2,$3*
1,1,$1+$1,$4,$5*
1,1,$1+$1,$6,$7*
1,1,$1+$1,$8,$9*
0 Add four rect primitives between the rounded corners*
20,1,$1+$1,$2,$3,$4,$5,0*
20,1,$1+$1,$4,$5,$6,$7,0*
20,1,$1+$1,$6,$7,$8,$9,0*
20,1,$1+$1,$8,$9,$2,$3,0*%
G04 Aperture macros list end*
%ADD10C,1.500000*%
%ADD11O,2.720000X3.240000*%
%ADD12R,1.800000X1.800000*%
%ADD13C,1.800000*%
%ADD14O,3.100000X2.100000*%
%ADD15RoundRect,0.650000X-0.650000X-0.650000X0.650000X-0.650000X0.650000X0.650000X-0.650000X0.650000X0*%
%ADD16C,1.400000*%
%ADD17O,1.400000X1.400000*%
%ADD18R,1.200000X1.200000*%
%ADD19C,1.200000*%
%ADD20R,1.600000X1.600000*%
%ADD21O,1.600000X1.600000*%
%ADD22RoundRect,0.250000X0.600000X-0.600000X0.600000X0.600000X-0.600000X0.600000X-0.600000X-0.600000X0*%
%ADD23C,1.700000*%
%ADD24C,1.600000*%
%ADD25R,2.200000X2.200000*%
%ADD26O,2.200000X2.200000*%
%ADD27R,1.500000X1.050000*%
%ADD28O,1.500000X1.050000*%
%ADD29C,1.440000*%
G04 APERTURE END LIST*
D10*
%TO.C,TP3*%
X59200000Y-39200000D03*
%TD*%
%TO.C,TP4*%
X57000000Y-99675000D03*
%TD*%
D11*
%TO.C,RV1*%
X48200000Y-47600000D03*
X38600000Y-47600000D03*
D12*
X40900000Y-55100000D03*
D13*
X43400000Y-55100000D03*
X45900000Y-55100000D03*
%TD*%
D10*
%TO.C,TP2*%
X47375000Y-38800000D03*
%TD*%
D14*
%TO.C,J5*%
X71200000Y-124080000D03*
D15*
X71200000Y-112680000D03*
X71200000Y-120980000D03*
%TD*%
D14*
%TO.C,J4*%
X71200000Y-88080000D03*
D15*
X71200000Y-76680000D03*
X71200000Y-84980000D03*
%TD*%
D14*
%TO.C,J1*%
X43400000Y-106080000D03*
D15*
X43400000Y-94680000D03*
X43400000Y-102980000D03*
%TD*%
D14*
%TO.C,J6*%
X43400000Y-123915000D03*
D15*
X43400000Y-112515000D03*
X43400000Y-120815000D03*
%TD*%
D14*
%TO.C,J2*%
X71200000Y-106080000D03*
D15*
X71200000Y-94680000D03*
X71200000Y-102980000D03*
%TD*%
D14*
%TO.C,J3*%
X43400000Y-88080000D03*
D15*
X43400000Y-76680000D03*
X43400000Y-84980000D03*
%TD*%
D10*
%TO.C,TP1*%
X73300000Y-72050000D03*
%TD*%
D11*
%TO.C,RV2*%
X66400000Y-47600000D03*
X76000000Y-47600000D03*
D12*
X68700000Y-55100000D03*
D13*
X71200000Y-55100000D03*
X73700000Y-55100000D03*
%TD*%
D16*
%TO.C,R31*%
X67540000Y-66225000D03*
D17*
X75160000Y-66225000D03*
%TD*%
D16*
%TO.C,R34*%
X63575000Y-104210000D03*
D17*
X63575000Y-96590000D03*
%TD*%
D16*
%TO.C,R30*%
X84400000Y-51160000D03*
D17*
X84400000Y-43540000D03*
%TD*%
D18*
%TO.C,C6*%
X47550000Y-20800000D03*
D19*
X45550000Y-20800000D03*
%TD*%
D16*
%TO.C,R8*%
X30350000Y-69890000D03*
D17*
X30350000Y-77510000D03*
%TD*%
D16*
%TO.C,R19*%
X41990000Y-65950000D03*
D17*
X49610000Y-65950000D03*
%TD*%
D18*
%TO.C,C7*%
X45627401Y-26150000D03*
D19*
X47627401Y-26150000D03*
%TD*%
D16*
%TO.C,R17*%
X29700000Y-36690000D03*
D17*
X29700000Y-44310000D03*
%TD*%
D20*
%TO.C,U2*%
X61850000Y-52325000D03*
D21*
X61850000Y-54865000D03*
X61850000Y-57405000D03*
X61850000Y-59945000D03*
X61850000Y-62485000D03*
X61850000Y-65025000D03*
X61850000Y-67565000D03*
X54230000Y-67565000D03*
X54230000Y-65025000D03*
X54230000Y-62485000D03*
X54230000Y-59945000D03*
X54230000Y-57405000D03*
X54230000Y-54865000D03*
X54230000Y-52325000D03*
%TD*%
D16*
%TO.C,R16*%
X52050000Y-41340000D03*
D17*
X52050000Y-48960000D03*
%TD*%
D16*
%TO.C,R32*%
X51250000Y-79440000D03*
D17*
X51250000Y-87060000D03*
%TD*%
D16*
%TO.C,R23*%
X41890000Y-69100000D03*
D17*
X49510000Y-69100000D03*
%TD*%
D22*
%TO.C,J7*%
X80400000Y-24900000D03*
D23*
X80400000Y-22360000D03*
X77860000Y-24900000D03*
X77860000Y-22360000D03*
X75320000Y-24900000D03*
X75320000Y-22360000D03*
X72780000Y-24900000D03*
X72780000Y-22360000D03*
X70240000Y-24900000D03*
X70240000Y-22360000D03*
%TD*%
D16*
%TO.C,R9*%
X34990000Y-59275000D03*
D17*
X42610000Y-59275000D03*
%TD*%
D16*
%TO.C,R11*%
X55190000Y-44700000D03*
D17*
X62810000Y-44700000D03*
%TD*%
D16*
%TO.C,R20*%
X62935000Y-36225000D03*
D17*
X55315000Y-36225000D03*
%TD*%
D16*
%TO.C,R26*%
X60760000Y-72050000D03*
D17*
X53140000Y-72050000D03*
%TD*%
D16*
%TO.C,R25*%
X29240000Y-80200000D03*
D17*
X36860000Y-80200000D03*
%TD*%
D16*
%TO.C,R29*%
X81450000Y-86735000D03*
D17*
X81450000Y-79115000D03*
%TD*%
D24*
%TO.C,C1*%
X36350000Y-90550000D03*
X36350000Y-95550000D03*
%TD*%
D16*
%TO.C,R7*%
X32750000Y-95090000D03*
D17*
X32750000Y-102710000D03*
%TD*%
D16*
%TO.C,R22*%
X81425000Y-75760000D03*
D17*
X81425000Y-68140000D03*
%TD*%
D25*
%TO.C,D1*%
X52170000Y-20800000D03*
D26*
X62330000Y-20800000D03*
%TD*%
D16*
%TO.C,R36*%
X77890000Y-112700000D03*
D17*
X85510000Y-112700000D03*
%TD*%
D27*
%TO.C,Q2*%
X75100000Y-38850000D03*
D28*
X75100000Y-37580000D03*
X75100000Y-36310000D03*
%TD*%
D16*
%TO.C,R24*%
X84400000Y-54040000D03*
D17*
X84400000Y-61660000D03*
%TD*%
D16*
%TO.C,R33*%
X29650000Y-108800000D03*
D17*
X29650000Y-101180000D03*
%TD*%
D16*
%TO.C,R10*%
X83200000Y-98090000D03*
D17*
X83200000Y-105710000D03*
%TD*%
D16*
%TO.C,R35*%
X34400000Y-116410000D03*
D17*
X34400000Y-108790000D03*
%TD*%
D16*
%TO.C,R18*%
X63550000Y-87510000D03*
D17*
X63550000Y-79890000D03*
%TD*%
D24*
%TO.C,C4*%
X66100000Y-60700000D03*
X71100000Y-60700000D03*
%TD*%
D29*
%TO.C,RV4*%
X81650000Y-38000000D03*
X84190000Y-35460000D03*
X81650000Y-32920000D03*
%TD*%
D16*
%TO.C,R28*%
X60500000Y-85360000D03*
D17*
X60500000Y-77740000D03*
%TD*%
D25*
%TO.C,D2*%
X62380000Y-26150000D03*
D26*
X52220000Y-26150000D03*
%TD*%
D16*
%TO.C,R27*%
X41890000Y-72750000D03*
D17*
X49510000Y-72750000D03*
%TD*%
D16*
%TO.C,R1*%
X33900000Y-47440000D03*
D17*
X33900000Y-55060000D03*
%TD*%
D16*
%TO.C,R21*%
X29600000Y-55060000D03*
D17*
X29600000Y-47440000D03*
%TD*%
D27*
%TO.C,Q3*%
X32160000Y-63630000D03*
D28*
X32160000Y-64900000D03*
X32160000Y-66170000D03*
%TD*%
D27*
%TO.C,Q1*%
X36390000Y-66170000D03*
D28*
X36390000Y-64900000D03*
X36390000Y-63630000D03*
%TD*%
D16*
%TO.C,R13*%
X32750000Y-83840000D03*
D17*
X32750000Y-91460000D03*
%TD*%
D16*
%TO.C,R15*%
X49560000Y-62950000D03*
D17*
X41940000Y-62950000D03*
%TD*%
D27*
%TO.C,Q4*%
X70210000Y-36380000D03*
D28*
X70210000Y-37650000D03*
X70210000Y-38920000D03*
%TD*%
D24*
%TO.C,C2*%
X79050000Y-95150000D03*
X79050000Y-100150000D03*
%TD*%
%TO.C,C8*%
X50900000Y-58300000D03*
X45900000Y-58300000D03*
%TD*%
D16*
%TO.C,R14*%
X80400000Y-50960000D03*
D17*
X80400000Y-43340000D03*
%TD*%
D29*
%TO.C,RV3*%
X35950000Y-36725000D03*
X38490000Y-39265000D03*
X41030000Y-36725000D03*
%TD*%
M02*
