M48
; DRILL file {KiCad (6.0.1)} date Sun Sep 11 09:05:24 2022
; FORMAT={-:-/ absolute / metric / decimal}
; #@! TF.CreationDate,2022-09-11T09:05:24+02:00
; #@! TF.GenerationSoftware,Kicad,Pcbnew,(6.0.1)
; #@! TF.FileFunction,MixedPlating,1,2
FMAT,2
METRIC
; #@! TA.AperFunction,Plated,PTH,ViaDrill
T1C0.400
; #@! TA.AperFunction,Plated,PTH,ComponentDrill
T2C0.600
; #@! TA.AperFunction,Plated,PTH,ComponentDrill
T3C0.700
; #@! TA.AperFunction,Plated,PTH,ComponentDrill
T4C0.750
; #@! TA.AperFunction,Plated,PTH,ComponentDrill
T5C0.800
; #@! TA.AperFunction,Plated,PTH,ComponentDrill
T6C1.000
; #@! TA.AperFunction,Plated,PTH,ComponentDrill
T7C1.100
; #@! TA.AperFunction,Plated,PTH,ComponentDrill
T8C1.300
%
G90
G05
T1
X36.83Y-72.87
X49.2Y-32.6
X54.8Y-73.85
X56.2Y-68.6
X57.0Y-80.875
X58.0Y-79.65
X59.1Y-69.0
X66.125Y-68.8
X72.975Y-50.7
X77.275Y-62.525
X82.55Y-57.225
T2
X45.55Y-20.8
X45.627Y-26.15
X47.55Y-20.8
X47.627Y-26.15
T3
X29.24Y-80.2
X29.6Y-47.44
X29.6Y-55.06
X29.65Y-101.18
X29.65Y-108.8
X29.7Y-36.69
X29.7Y-44.31
X30.35Y-69.89
X30.35Y-77.51
X32.75Y-83.84
X32.75Y-91.46
X32.75Y-95.09
X32.75Y-102.71
X33.9Y-47.44
X33.9Y-55.06
X34.4Y-108.79
X34.4Y-116.41
X34.99Y-59.275
X36.86Y-80.2
X41.89Y-69.1
X41.89Y-72.75
X41.94Y-62.95
X41.99Y-65.95
X42.61Y-59.275
X47.375Y-38.8
X49.51Y-69.1
X49.51Y-72.75
X49.56Y-62.95
X49.61Y-65.95
X51.25Y-79.44
X51.25Y-87.06
X52.05Y-41.34
X52.05Y-48.96
X53.14Y-72.05
X55.19Y-44.7
X55.315Y-36.225
X57.0Y-99.675
X59.2Y-39.2
X60.5Y-77.74
X60.5Y-85.36
X60.76Y-72.05
X62.81Y-44.7
X62.935Y-36.225
X63.55Y-79.89
X63.55Y-87.51
X63.575Y-96.59
X63.575Y-104.21
X67.54Y-66.225
X73.3Y-72.05
X75.16Y-66.225
X77.89Y-112.7
X80.4Y-43.34
X80.4Y-50.96
X81.425Y-68.14
X81.425Y-75.76
X81.45Y-79.115
X81.45Y-86.735
X83.2Y-98.09
X83.2Y-105.71
X84.4Y-43.54
X84.4Y-51.16
X84.4Y-54.04
X84.4Y-61.66
X85.51Y-112.7
T4
X32.16Y-63.63
X32.16Y-64.9
X32.16Y-66.17
X36.39Y-63.63
X36.39Y-64.9
X36.39Y-66.17
X70.21Y-36.38
X70.21Y-37.65
X70.21Y-38.92
X75.1Y-36.31
X75.1Y-37.58
X75.1Y-38.85
T5
X35.95Y-36.725
X36.35Y-90.55
X36.35Y-95.55
X38.49Y-39.265
X41.03Y-36.725
X45.9Y-58.3
X50.9Y-58.3
X54.23Y-52.325
X54.23Y-54.865
X54.23Y-57.405
X54.23Y-59.945
X54.23Y-62.485
X54.23Y-65.025
X54.23Y-67.565
X61.85Y-52.325
X61.85Y-54.865
X61.85Y-57.405
X61.85Y-59.945
X61.85Y-62.485
X61.85Y-65.025
X61.85Y-67.565
X66.1Y-60.7
X71.1Y-60.7
X79.05Y-95.15
X79.05Y-100.15
X81.65Y-32.92
X81.65Y-38.0
X84.19Y-35.46
T6
X40.9Y-55.1
X43.4Y-55.1
X45.9Y-55.1
X68.7Y-55.1
X70.24Y-22.36
X70.24Y-24.9
X71.2Y-55.1
X72.78Y-22.36
X72.78Y-24.9
X73.7Y-55.1
X75.32Y-22.36
X75.32Y-24.9
X77.86Y-22.36
X77.86Y-24.9
X80.4Y-22.36
X80.4Y-24.9
T8
X52.17Y-20.8
X52.22Y-26.15
X62.33Y-20.8
X62.38Y-26.15
T2
G00X42.9Y-76.68
M15
G01X43.9Y-76.68
M16
G05
G00X42.9Y-84.98
M15
G01X43.9Y-84.98
M16
G05
G00X42.9Y-88.08
M15
G01X43.9Y-88.08
M16
G05
G00X42.9Y-94.68
M15
G01X43.9Y-94.68
M16
G05
G00X42.9Y-102.98
M15
G01X43.9Y-102.98
M16
G05
G00X42.9Y-106.08
M15
G01X43.9Y-106.08
M16
G05
G00X42.9Y-112.515
M15
G01X43.9Y-112.515
M16
G05
G00X42.9Y-120.815
M15
G01X43.9Y-120.815
M16
G05
G00X42.9Y-123.915
M15
G01X43.9Y-123.915
M16
G05
G00X70.7Y-76.68
M15
G01X71.7Y-76.68
M16
G05
G00X70.7Y-84.98
M15
G01X71.7Y-84.98
M16
G05
G00X70.7Y-88.08
M15
G01X71.7Y-88.08
M16
G05
G00X70.7Y-94.68
M15
G01X71.7Y-94.68
M16
G05
G00X70.7Y-102.98
M15
G01X71.7Y-102.98
M16
G05
G00X70.7Y-106.08
M15
G01X71.7Y-106.08
M16
G05
G00X70.7Y-112.68
M15
G01X71.7Y-112.68
M16
G05
G00X70.7Y-120.98
M15
G01X71.7Y-120.98
M16
G05
G00X70.7Y-124.08
M15
G01X71.7Y-124.08
M16
G05
T7
G00X38.6Y-47.95
M15
G01X38.6Y-47.25
M16
G05
G00X48.2Y-47.95
M15
G01X48.2Y-47.25
M16
G05
G00X66.4Y-47.95
M15
G01X66.4Y-47.25
M16
G05
G00X76.0Y-47.95
M15
G01X76.0Y-47.25
M16
G05
T0
M30
